{"accessors":[{"bufferView":0,"componentType":5125,"count":5640,"max":[2127.0],"min":[0.0],"type":"SCALAR"},{"bufferView":1,"componentType":5126,"count":2128,"max":[0.06499999761581421,0.07999999821186066,0.01759999990463257],"min":[0.0,-0.020999999716877939,-0.07760000228881836],"type":"VEC3"},{"bufferView":2,"componentType":5126,"count":2128,"max":[1.0,1.0,1.0],"min":[-1.0,-1.0,-1.0],"type":"VEC3"},{"bufferView":3,"componentType":5126,"count":2128,"max":[1.0,1.0],"min":[0.0,0.0],"type":"VEC2"},{"bufferView":4,"componentType":5125,"count":28746,"max":[9763.0],"min":[0.0],"type":"SCALAR"},{"bufferView":5,"componentType":5126,"count":9764,"max":[0.007699999958276749,0.021609868854284288,1.1754943508222876e-38],"min":[-0.007699999958276749,-0.03400000184774399,-0.039900001138448718],"type":"VEC3"},{"bufferView":6,"componentType":5126,"count":9764,"max":[1.0,1.0,1.0],"min":[-1.0,-1.0,-1.0],"type":"VEC3"},{"bufferView":7,"componentType":5126,"count":9764,"max":[1.0,1.0],"min":[0.0,0.0],"type":"VEC2"},{"bufferView":8,"componentType":5125,"count":3516,"max":[1411.0],"min":[0.0],"type":"SCALAR"},{"bufferView":9,"componentType":5126,"count":1412,"max":[0.014474534429609776,0.01449363213032484,1.1754943508222876e-38],"min":[-0.014499999582767487,-0.01449363213032484,-0.009200000204145909],"type":"VEC3"},{"bufferView":10,"componentType":5126,"count":1412,"max":[1.0,1.0,1.0],"min":[-1.0,-1.0,-1.0],"type":"VEC3"},{"bufferView":11,"componentType":5126,"count":1412,"max":[1.0,1.0],"min":[0.0,0.0],"type":"VEC2"},{"bufferView":12,"componentType":5125,"count":1476,"max":[539.0],"min":[0.0],"type":"SCALAR"},{"bufferView":13,"componentType":5126,"count":540,"max":[0.012000000104308129,0.013856406323611737,1.1754943508222876e-38],"min":[-0.012000000104308129,-0.013856406323611737,-0.006800000090152025],"type":"VEC3"},{"bufferView":14,"componentType":5126,"count":540,"max":[1.0,0.9993908405303955,1.0],"min":[-1.0,-0.9993908405303955,-1.0],"type":"VEC3"},{"bufferView":15,"componentType":5126,"count":540,"max":[1.0,1.0],"min":[0.0,0.0],"type":"VEC2"},{"bufferView":16,"componentType":5125,"count":1368,"max":[501.0],"min":[0.0],"type":"SCALAR"},{"bufferView":17,"componentType":5126,"count":502,"max":[0.025049999356269838,0.045545000582933429,1.1754943508222876e-38],"min":[0.0,0.0,-0.0177800003439188],"type":"VEC3"},{"bufferView":18,"componentType":5126,"count":502,"max":[1.0,1.0,1.0],"min":[-1.0,-1.0,-1.0],"type":"VEC3"},{"bufferView":19,"componentType":5126,"count":502,"max":[1.0,1.0],"min":[0.0,0.0],"type":"VEC2"},{"bufferView":20,"componentType":5125,"count":1284,"max":[503.0],"min":[0.0],"type":"SCALAR"},{"bufferView":21,"componentType":5126,"count":504,"max":[0.088735431432724,0.11237044632434845,0.11164382100105286],"min":[0.016115430742502214,0.10729044675827027,0.016443820670247079],"type":"VEC3"},{"bufferView":22,"componentType":5126,"count":504,"max":[1.0,1.0,1.0],"min":[-1.0,-1.0,-1.0],"type":"VEC3"},{"bufferView":23,"componentType":5126,"count":504,"max":[1.0,1.0],"min":[0.0,0.0],"type":"VEC2"},{"bufferView":24,"componentType":5125,"count":756,"max":[291.0],"min":[0.0],"type":"SCALAR"},{"bufferView":25,"componentType":5126,"count":292,"max":[0.14160500466823579,0.01269999984651804,0.17621250450611115],"min":[-0.14160500466823579,0.0,-0.05238749831914902],"type":"VEC3"},{"bufferView":26,"componentType":5126,"count":292,"max":[1.0,1.0,1.0],"min":[-1.0,-1.0,-1.0],"type":"VEC3"},{"bufferView":27,"componentType":5126,"count":292,"max":[1.0,1.0],"min":[0.0,0.0],"type":"VEC2"},{"bufferView":28,"componentType":5125,"count":4656,"max":[1619.0],"min":[0.0],"type":"SCALAR"},{"bufferView":29,"componentType":5126,"count":1620,"max":[0.02539999969303608,0.25095200538635256,0.00634999992325902],"min":[-2.1859503480320642e-29,0.0,0.0],"type":"VEC3"},{"bufferView":30,"componentType":5126,"count":1620,"max":[1.0,1.0,1.0],"min":[-1.0,-1.0,-1.0],"type":"VEC3"},{"bufferView":31,"componentType":5126,"count":1620,"max":[1.0,1.0],"min":[0.0,0.0],"type":"VEC2"},{"bufferView":32,"componentType":5125,"count":1824,"max":[673.0],"min":[0.0],"type":"SCALAR"},{"bufferView":33,"componentType":5126,"count":674,"max":[1.1754943508222876e-38,0.15633699297904969,0.16509999334812165],"min":[-0.019050000235438348,0.12839700281620027,0.0],"type":"VEC3"},{"bufferView":34,"componentType":5126,"count":674,"max":[1.0,1.0,1.0],"min":[-1.0,-1.0,-1.0],"type":"VEC3"},{"bufferView":35,"componentType":5126,"count":674,"max":[1.0,1.0],"min":[0.0,0.0],"type":"VEC2"},{"bufferView":36,"componentType":5125,"count":24114,"max":[8064.0],"min":[0.0],"type":"SCALAR"},{"bufferView":37,"componentType":5126,"count":8065,"max":[0.005556249991059303,0.003159125102683902,0.006415804848074913],"min":[-0.005556249991059303,-0.0027781249955296518,-0.006415804848074913],"type":"VEC3"},{"bufferView":38,"componentType":5126,"count":8065,"max":[1.0,1.0,1.0],"min":[-1.0,-1.0,-1.0],"type":"VEC3"},{"bufferView":39,"componentType":5126,"count":8065,"max":[1.0,1.0],"min":[0.0,0.0],"type":"VEC2"},{"bufferView":40,"componentType":5125,"count":41130,"max":[12645.0],"min":[0.0],"type":"SCALAR"},{"bufferView":41,"componentType":5126,"count":12646,"max":[0.004762500058859587,0.004760241135954857,1.1754943508222876e-38],"min":[-0.004762500058859587,-0.004760241135954857,-0.022224999964237214],"type":"VEC3"},{"bufferView":42,"componentType":5126,"count":12646,"max":[1.0,1.0,1.0],"min":[-1.0,-1.0,-1.0],"type":"VEC3"},{"bufferView":43,"componentType":5126,"count":12646,"max":[1.0,1.0],"min":[0.0,0.0],"type":"VEC2"},{"bufferView":44,"componentType":5125,"count":324,"max":[120.0],"min":[0.0],"type":"SCALAR"},{"bufferView":45,"componentType":5126,"count":121,"max":[0.025029726326465608,0.2793999910354614,0.025029726326465608],"min":[-0.025029726326465608,0.26669999957084658,-0.025029726326465608],"type":"VEC3"},{"bufferView":46,"componentType":5126,"count":121,"max":[1.0,1.0,1.0],"min":[-1.0,0.0,-1.0],"type":"VEC3"},{"bufferView":47,"componentType":5126,"count":121,"max":[1.0,1.0],"min":[1.1102230246251566e-16,0.0],"type":"VEC2"},{"bufferView":48,"componentType":5125,"count":5328,"max":[1771.0],"min":[0.0],"type":"SCALAR"},{"bufferView":49,"componentType":5126,"count":1772,"max":[0.08379220962524414,0.26669999957084658,0.08382000029087067],"min":[-0.08379220962524414,0.0,-0.08382000029087067],"type":"VEC3"},{"bufferView":50,"componentType":5126,"count":1772,"max":[0.9996684789657593,0.5535190105438232,1.0],"min":[-0.9996684789657593,-1.0,-1.0],"type":"VEC3"},{"bufferView":51,"componentType":5126,"count":1772,"max":[0.9952825903892517,0.9959401488304138],"min":[0.004059819970279932,0.004059851169586182],"type":"VEC2"}],"asset":{"generator":"SimLab GLTF","version":"2.0"},"bufferViews":[{"buffer":0,"byteLength":22560,"target":34963},{"buffer":0,"byteLength":25536,"byteOffset":22560,"byteStride":12,"target":34962},{"buffer":0,"byteLength":25536,"byteOffset":48096,"byteStride":12,"target":34962},{"buffer":0,"byteLength":17024,"byteOffset":73632,"byteStride":8,"target":34962},{"buffer":0,"byteLength":114984,"byteOffset":90656,"target":34963},{"buffer":0,"byteLength":117168,"byteOffset":205640,"byteStride":12,"target":34962},{"buffer":0,"byteLength":117168,"byteOffset":322808,"byteStride":12,"target":34962},{"buffer":0,"byteLength":78112,"byteOffset":439976,"byteStride":8,"target":34962},{"buffer":0,"byteLength":14064,"byteOffset":518088,"target":34963},{"buffer":0,"byteLength":16944,"byteOffset":532152,"byteStride":12,"target":34962},{"buffer":0,"byteLength":16944,"byteOffset":549096,"byteStride":12,"target":34962},{"buffer":0,"byteLength":11296,"byteOffset":566040,"byteStride":8,"target":34962},{"buffer":0,"byteLength":5904,"byteOffset":577336,"target":34963},{"buffer":0,"byteLength":6480,"byteOffset":583240,"byteStride":12,"target":34962},{"buffer":0,"byteLength":6480,"byteOffset":589720,"byteStride":12,"target":34962},{"buffer":0,"byteLength":4320,"byteOffset":596200,"byteStride":8,"target":34962},{"buffer":0,"byteLength":5472,"byteOffset":600520,"target":34963},{"buffer":0,"byteLength":6024,"byteOffset":605992,"byteStride":12,"target":34962},{"buffer":0,"byteLength":6024,"byteOffset":612016,"byteStride":12,"target":34962},{"buffer":0,"byteLength":4016,"byteOffset":618040,"byteStride":8,"target":34962},{"buffer":0,"byteLength":5136,"byteOffset":622056,"target":34963},{"buffer":0,"byteLength":6048,"byteOffset":627192,"byteStride":12,"target":34962},{"buffer":0,"byteLength":6048,"byteOffset":633240,"byteStride":12,"target":34962},{"buffer":0,"byteLength":4032,"byteOffset":639288,"byteStride":8,"target":34962},{"buffer":0,"byteLength":3024,"byteOffset":643320,"target":34963},{"buffer":0,"byteLength":3504,"byteOffset":646344,"byteStride":12,"target":34962},{"buffer":0,"byteLength":3504,"byteOffset":649848,"byteStride":12,"target":34962},{"buffer":0,"byteLength":2336,"byteOffset":653352,"byteStride":8,"target":34962},{"buffer":0,"byteLength":18624,"byteOffset":655688,"target":34963},{"buffer":0,"byteLength":19440,"byteOffset":674312,"byteStride":12,"target":34962},{"buffer":0,"byteLength":19440,"byteOffset":693752,"byteStride":12,"target":34962},{"buffer":0,"byteLength":12960,"byteOffset":713192,"byteStride":8,"target":34962},{"buffer":0,"byteLength":7296,"byteOffset":726152,"target":34963},{"buffer":0,"byteLength":8088,"byteOffset":733448,"byteStride":12,"target":34962},{"buffer":0,"byteLength":8088,"byteOffset":741536,"byteStride":12,"target":34962},{"buffer":0,"byteLength":5392,"byteOffset":749624,"byteStride":8,"target":34962},{"buffer":0,"byteLength":96456,"byteOffset":755016,"target":34963},{"buffer":0,"byteLength":96780,"byteOffset":851472,"byteStride":12,"target":34962},{"buffer":0,"byteLength":96780,"byteOffset":948252,"byteStride":12,"target":34962},{"buffer":0,"byteLength":64520,"byteOffset":1045032,"byteStride":8,"target":34962},{"buffer":0,"byteLength":164520,"byteOffset":1109552,"target":34963},{"buffer":0,"byteLength":151752,"byteOffset":1274072,"byteStride":12,"target":34962},{"buffer":0,"byteLength":151752,"byteOffset":1425824,"byteStride":12,"target":34962},{"buffer":0,"byteLength":101168,"byteOffset":1577576,"byteStride":8,"target":34962},{"buffer":0,"byteLength":1296,"byteOffset":1678744,"target":34963},{"buffer":0,"byteLength":1452,"byteOffset":1680040,"byteStride":12,"target":34962},{"buffer":0,"byteLength":1452,"byteOffset":1681492,"byteStride":12,"target":34962},{"buffer":0,"byteLength":968,"byteOffset":1682944,"byteStride":8,"target":34962},{"buffer":0,"byteLength":21312,"byteOffset":1683912,"target":34963},{"buffer":0,"byteLength":21264,"byteOffset":1705224,"byteStride":12,"target":34962},{"buffer":0,"byteLength":21264,"byteOffset":1726488,"byteStride":12,"target":34962},{"buffer":0,"byteLength":14176,"byteOffset":1747752,"byteStride":8,"target":34962}],"buffers":[{"byteLength":1761928,"uri":"acid_cabinet.bin"}],"materials":[{"alphaMode":"OPAQUE","doubleSided":true,"pbrMetallicRoughness":{"baseColorFactor":[0.005490196403115988,0.16745097935199738,0.5764706134796143,1.0],"metallicFactor":0.0}},{"alphaMode":"OPAQUE","doubleSided":true,"pbrMetallicRoughness":{"baseColorFactor":[0.7764706015586853,0.7568627595901489,0.7372549176216126,1.0],"metallicFactor":0.0}},{"alphaMode":"OPAQUE","doubleSided":true,"pbrMetallicRoughness":{"baseColorFactor":[0.005490196403115988,0.16745097935199738,0.5764706134796143,1.0],"metallicFactor":0.0}},{"alphaMode":"OPAQUE","doubleSided":true,"pbrMetallicRoughness":{"baseColorFactor":[0.005490196403115988,0.16745097935199738,0.5764706134796143,1.0],"metallicFactor":0.0}},{"alphaMode":"OPAQUE","doubleSided":true,"pbrMetallicRoughness":{"baseColorFactor":[0.5901960730552673,0.570980429649353,0.5270588397979736,1.0],"metallicFactor":0.0}},{"alphaMode":"OPAQUE","doubleSided":true,"pbrMetallicRoughness":{"baseColorFactor":[0.5901960730552673,0.570980429649353,0.5270588397979736,1.0],"metallicFactor":0.0}},{"alphaMode":"OPAQUE","doubleSided":true,"pbrMetallicRoughness":{"baseColorFactor":[0.5901960730552673,0.570980429649353,0.5270588397979736,1.0],"metallicFactor":0.0}},{"alphaMode":"OPAQUE","doubleSided":true,"pbrMetallicRoughness":{"baseColorFactor":[0.7529411911964417,0.7529411911964417,0.7529411911964417,1.0],"metallicFactor":0.0}},{"alphaMode":"OPAQUE","doubleSided":true,"pbrMetallicRoughness":{"baseColorFactor":[0.7764706015586853,0.7568627595901489,0.7372549176216126,1.0],"metallicFactor":0.0}},{"alphaMode":"OPAQUE","doubleSided":true,"pbrMetallicRoughness":{"baseColorFactor":[0.20862746238708497,0.20862746238708497,0.20862746238708497,1.0],"metallicFactor":0.0}},{"alphaMode":"OPAQUE","doubleSided":true,"pbrMetallicRoughness":{"baseColorFactor":[0.699999988079071,0.699999988079071,0.699999988079071,1.0],"metallicFactor":0.0}}],"meshes":[{"primitives":[{"attributes":{"NORMAL":2,"POSITION":1,"TEXCOORD_0":3},"indices":0,"material":0,"mode":4}]},{"primitives":[{"attributes":{"NORMAL":6,"POSITION":5,"TEXCOORD_0":7},"indices":4,"material":1,"mode":4}]},{"primitives":[{"attributes":{"NORMAL":10,"POSITION":9,"TEXCOORD_0":11},"indices":8,"material":1,"mode":4}]},{"primitives":[{"attributes":{"NORMAL":14,"POSITION":13,"TEXCOORD_0":15},"indices":12,"material":1,"mode":4}]},{"primitives":[{"attributes":{"NORMAL":18,"POSITION":17,"TEXCOORD_0":19},"indices":16,"material":2,"mode":4}]},{"primitives":[{"attributes":{"NORMAL":22,"POSITION":21,"TEXCOORD_0":23},"indices":20,"material":3,"mode":4}]},{"primitives":[{"attributes":{"NORMAL":26,"POSITION":25,"TEXCOORD_0":27},"indices":24,"material":4,"mode":4}]},{"primitives":[{"attributes":{"NORMAL":30,"POSITION":29,"TEXCOORD_0":31},"indices":28,"material":5,"mode":4}]},{"primitives":[{"attributes":{"NORMAL":34,"POSITION":33,"TEXCOORD_0":35},"indices":32,"material":6,"mode":4}]},{"primitives":[{"attributes":{"NORMAL":38,"POSITION":37,"TEXCOORD_0":39},"indices":36,"material":7,"mode":4}]},{"primitives":[{"attributes":{"NORMAL":38,"POSITION":37,"TEXCOORD_0":39},"indices":36,"material":7,"mode":4}]},{"primitives":[{"attributes":{"NORMAL":42,"POSITION":41,"TEXCOORD_0":43},"indices":40,"material":8,"mode":4}]},{"primitives":[{"attributes":{"NORMAL":42,"POSITION":41,"TEXCOORD_0":43},"indices":40,"material":8,"mode":4}]},{"primitives":[{"attributes":{"NORMAL":42,"POSITION":41,"TEXCOORD_0":43},"indices":40,"material":8,"mode":4}]},{"primitives":[{"attributes":{"NORMAL":38,"POSITION":37,"TEXCOORD_0":39},"indices":36,"material":7,"mode":4}]},{"primitives":[{"attributes":{"NORMAL":42,"POSITION":41,"TEXCOORD_0":43},"indices":40,"material":8,"mode":4}]},{"primitives":[{"attributes":{"NORMAL":38,"POSITION":37,"TEXCOORD_0":39},"indices":36,"material":7,"mode":4}]},{"primitives":[{"attributes":{"NORMAL":38,"POSITION":37,"TEXCOORD_0":39},"indices":36,"material":7,"mode":4}]},{"primitives":[{"attributes":{"NORMAL":42,"POSITION":41,"TEXCOORD_0":43},"indices":40,"material":8,"mode":4}]},{"primitives":[{"attributes":{"NORMAL":42,"POSITION":41,"TEXCOORD_0":43},"indices":40,"material":8,"mode":4}]},{"primitives":[{"attributes":{"NORMAL":38,"POSITION":37,"TEXCOORD_0":39},"indices":36,"material":7,"mode":4}]},{"primitives":[{"attributes":{"NORMAL":46,"POSITION":45,"TEXCOORD_0":47},"indices":44,"material":9,"mode":4}]},{"primitives":[{"attributes":{"NORMAL":50,"POSITION":49,"TEXCOORD_0":51},"indices":48,"material":10,"mode":4}]}],"nodes":[{"children":[1,2,6,16,20,24,28,32,36,40,44,48,52,56,60,64,68,72,76,80,84],"matrix":[1.0,0.0,0.0,0.0,0.0,4.4896593387466768e-11,-1.0,0.0,0.0,1.0,4.4896593387466768e-11,0.0,0.0,0.0,0.0,1.0]},{"name":"Camera~1","rotation":[-0.7071067690849304,0.0,0.0,-0.7071067690849304],"translation":[0.1055574044585228,-1.2837350368499756,0.10642600059509278]},{"name":"LRZ Case 2-1","children":[3],"rotation":[0.5,-0.5,0.5,-0.5],"translation":[0.16629000008106233,0.00634999992325902,0.20840099453926087]},{"name":"Body_1","children":[5],"rotation":[0.0,0.0,0.0,-1.0]},{"mesh":0},{"children":[4]},{"name":"LR-ZH490CB-1","children":[7,10,13],"rotation":[0.7071067690849304,-2.9858046386590058e-16,-7.947127808935863e-16,-0.7071067690849304],"translation":[0.1332699954509735,0.007945000194013119,0.1544010043144226]},{"name":"Body_1","children":[9],"rotation":[0.0,0.0,0.0,-1.0]},{"mesh":1},{"children":[8]},{"name":"Body_2","children":[12],"rotation":[0.0,0.0,0.0,-1.0]},{"mesh":2},{"children":[11]},{"name":"Body_3","children":[15],"rotation":[0.0,0.0,0.0,-1.0]},{"mesh":3},{"children":[14]},{"name":"LRZ Holder-1","children":[17],"rotation":[-0.5,0.5,-0.5,-0.5],"translation":[0.16629000008106233,-0.015554999932646752,0.1418759971857071]},{"name":"Body_1","children":[19],"rotation":[0.0,0.0,0.0,-1.0]},{"mesh":4},{"children":[18]},{"name":"LRZ Case Cover-1","children":[21],"rotation":[0.5,-0.5,0.5,-0.5],"translation":[0.07224617898464203,0.026275429874658586,0.23569144308567048]},{"name":"Body_1","children":[23],"rotation":[0.0,0.0,0.0,-1.0]},{"mesh":5},{"children":[22]},{"name":"Bottle Container Guide-1","children":[25],"rotation":[-0.5,-0.5,-0.5,-0.5],"translation":[0.05873750150203705,0.14160500466823579,8.549891012580804e-17]},{"name":"Body_1","children":[27],"rotation":[0.0,0.0,0.0,-1.0]},{"mesh":6},{"children":[26]},{"name":"LRZ Side Rack-1","children":[29],"rotation":[-0.5,-0.5,-0.5,-0.5],"translation":[-5.228138482487513e-17,-1.341313998502326e-18,0.01269999984651804]},{"name":"Body_1","children":[31],"rotation":[0.0,0.0,0.0,-1.0]},{"mesh":7},{"children":[30]},{"name":"LRZ Mount Bracket-1","children":[33],"rotation":[-0.5,-0.5,-0.5,-0.5],"translation":[0.00634999992325902,0.02539999969303608,0.0815339982509613]},{"name":"Body_1","children":[35],"rotation":[0.0,0.0,0.0,-1.0]},{"mesh":8},{"children":[34]},{"name":"96169A468_POLYPROPYLENE HEX NUT-1","children":[37],"rotation":[0.05460410565137863,0.704995334148407,-0.704995334148407,-0.05460410565137863],"translation":[0.17848999798297883,-0.026149999350309373,0.12054287642240524]},{"name":"Body_1","children":[39],"rotation":[0.0,0.0,0.0,-1.0]},{"mesh":9},{"children":[38]},{"name":"96169A468_POLYPROPYLENE HEX NUT-5","children":[41],"rotation":[0.45327743887901308,1.607129708437645e-17,0.8913694620132446,4.31640975429197e-16],"translation":[0.1767510026693344,-0.0004281250003259629,0.13380099833011628]},{"name":"Body_1","children":[43],"rotation":[0.0,0.0,0.0,-1.0]},{"mesh":10},{"children":[42]},{"name":"99477A610_POLYPROPYLENE SOCKET HEAD CAP SCREW-1","children":[45],"rotation":[0.07722186297178269,0.9970139265060425,-3.965072134473911e-16,-8.142764361785228e-16],"translation":[0.17848999798297883,-0.026149999350309373,0.11652600020170212]},{"name":"Body_1","children":[47],"rotation":[0.0,0.0,0.0,-1.0]},{"mesh":11},{"children":[46]},{"name":"99477A610_POLYPROPYLENE SOCKET HEAD CAP SCREW-5","children":[49],"rotation":[-0.5339033603668213,-0.46362394094467165,0.46362394094467165,-0.5339033603668213],"translation":[0.1767510026693344,-0.009525000117719174,0.13380099833011628]},{"name":"Body_1","children":[51],"rotation":[0.0,0.0,0.0,-1.0]},{"mesh":12},{"children":[50]},{"name":"99477A610_POLYPROPYLENE SOCKET HEAD CAP SCREW-6","children":[53],"rotation":[0.6971874833106995,-0.11802371591329575,-0.11802371591329575,-0.6971874833106995],"translation":[0.1767510026693344,-0.042775001376867297,0.13380099833011628]},{"name":"Body_1","children":[55],"rotation":[0.0,0.0,0.0,-1.0]},{"mesh":13},{"children":[54]},{"name":"96169A468_POLYPROPYLENE HEX NUT-6","children":[57],"rotation":[4.545164501285591e-16,0.9161945581436157,-9.721826607811643e-17,-0.4007337689399719],"translation":[0.1767510026693344,-0.05187187343835831,0.13380099833011628]},{"name":"Body_1","children":[59],"rotation":[0.0,0.0,0.0,-1.0]},{"mesh":14},{"children":[58]},{"name":"99477A610_POLYPROPYLENE SOCKET HEAD CAP SCREW-8","children":[61],"rotation":[-0.3298495411872864,-0.6254592537879944,0.6254592537879944,-0.3298495411872864],"translation":[0.09582900255918503,-0.009525000117719174,0.13380099833011628]},{"name":"Body_1","children":[63],"rotation":[0.0,0.0,0.0,-1.0]},{"mesh":15},{"children":[62]},{"name":"96169A468_POLYPROPYLENE HEX NUT-8","children":[65],"rotation":[0.7452234625816345,-1.0044969015444668e-16,0.6668148040771484,4.538132010241012e-16],"translation":[0.09582900255918503,-0.0004281250003259629,0.13380099833011628]},{"name":"Body_1","children":[67],"rotation":[0.0,0.0,0.0,-1.0]},{"mesh":16},{"children":[66]},{"name":"96169A468_POLYPROPYLENE HEX NUT-12","children":[69],"rotation":[-3.28890055575738e-16,-0.9869605302810669,3.2843249896554309e-16,-0.16096258163452149],"translation":[0.09582900255918503,-0.05187187343835831,0.13380099833011628]},{"name":"Body_1","children":[71],"rotation":[0.0,0.0,0.0,-1.0]},{"mesh":17},{"children":[70]},{"name":"99477A610_POLYPROPYLENE SOCKET HEAD CAP SCREW-12","children":[73],"rotation":[0.6495441794395447,0.27945005893707278,0.27945005893707278,-0.6495441794395447],"translation":[0.09582900255918503,-0.042775001376867297,0.13380099833011628]},{"name":"Body_1","children":[75],"rotation":[0.0,0.0,0.0,-1.0]},{"mesh":18},{"children":[74]},{"name":"99477A610_POLYPROPYLENE SOCKET HEAD CAP SCREW-15","children":[77],"rotation":[-0.5855051875114441,0.8106686472892761,3.709110424516686e-16,-9.767580548295462e-16],"translation":[0.09408999979496002,-0.026149999350309373,0.11652600020170212]},{"name":"Body_1","children":[79],"rotation":[0.0,0.0,0.0,-1.0]},{"mesh":19},{"children":[78]},{"name":"96169A468_POLYPROPYLENE HEX NUT-15","children":[81],"rotation":[0.6564337015151978,0.26285886764526369,-0.26285886764526369,-0.6564337015151978],"translation":[0.09408999979496002,-0.026149999350309373,0.12054287642240524]},{"name":"Body_1","children":[83],"rotation":[0.0,0.0,0.0,-1.0]},{"mesh":20},{"children":[82]},{"name":"Bottle-1","children":[85],"rotation":[-0.3189944922924042,0.6310645937919617,0.6310645937919617,-0.3189944922924042],"translation":[0.09334500133991242,0.14160500466823579,-0.05079999938607216]},{"name":"Body_1","children":[86,89],"rotation":[0.0,0.0,0.0,-1.0]},{"name":"3DGeom~504","children":[88],"rotation":[0.0,0.0,0.0,-1.0]},{"mesh":21},{"children":[87]},{"name":"3DGeom~505","children":[91],"rotation":[0.0,0.0,0.0,-1.0]},{"mesh":22},{"children":[90]}],"samplers":[{"wrapS":10497,"wrapT":10497}],"scene":0,"scenes":[{"nodes":[0]}]}