{"accessors":[{"bufferView":0,"componentType":5125,"count":26166,"max":[10327.0],"min":[0.0],"type":"SCALAR"},{"bufferView":1,"componentType":5126,"count":10328,"max":[0.13811250030994416,0.028669999912381173,0.19050000607967378],"min":[-0.13811250030994416,0.0,-0.10159999877214432],"type":"VEC3"},{"bufferView":2,"componentType":5126,"count":10328,"max":[1.0,1.0,1.0],"min":[-1.0,-1.0,-1.0],"type":"VEC3"},{"bufferView":3,"componentType":5126,"count":10328,"max":[1.0,1.0],"min":[0.0,0.0],"type":"VEC2"},{"bufferView":4,"componentType":5125,"count":6324,"max":[2109.0],"min":[0.0],"type":"SCALAR"},{"bufferView":5,"componentType":5126,"count":2110,"max":[0.020320000126957895,0.007366000209003687,1.1754943508222876e-38],"min":[0.0,-0.00634999992325902,-0.05079999938607216],"type":"VEC3"},{"bufferView":6,"componentType":5126,"count":2110,"max":[1.0,1.0,1.0],"min":[-1.0,-1.0,-1.0],"type":"VEC3"},{"bufferView":7,"componentType":5126,"count":2110,"max":[1.0,1.0],"min":[0.0,0.0],"type":"VEC2"},{"bufferView":8,"componentType":5125,"count":4896,"max":[1785.0],"min":[0.0],"type":"SCALAR"},{"bufferView":9,"componentType":5126,"count":1786,"max":[0.1508219987154007,0.007366000209003687,1.1754943508222876e-38],"min":[-0.1508219987154007,-0.00634999992325902,-0.07620000094175339],"type":"VEC3"},{"bufferView":10,"componentType":5126,"count":1786,"max":[1.0,1.0,1.0],"min":[-1.0,-1.0,-1.0],"type":"VEC3"},{"bufferView":11,"componentType":5126,"count":1786,"max":[1.0,1.0],"min":[0.0,0.0],"type":"VEC2"}],"asset":{"generator":"SimLab GLTF","version":"2.0"},"bufferViews":[{"buffer":0,"byteLength":104664,"target":34963},{"buffer":0,"byteLength":123936,"byteOffset":104664,"byteStride":12,"target":34962},{"buffer":0,"byteLength":123936,"byteOffset":228600,"byteStride":12,"target":34962},{"buffer":0,"byteLength":82624,"byteOffset":352536,"byteStride":8,"target":34962},{"buffer":0,"byteLength":25296,"byteOffset":435160,"target":34963},{"buffer":0,"byteLength":25320,"byteOffset":460456,"byteStride":12,"target":34962},{"buffer":0,"byteLength":25320,"byteOffset":485776,"byteStride":12,"target":34962},{"buffer":0,"byteLength":16880,"byteOffset":511096,"byteStride":8,"target":34962},{"buffer":0,"byteLength":19584,"byteOffset":527976,"target":34963},{"buffer":0,"byteLength":21432,"byteOffset":547560,"byteStride":12,"target":34962},{"buffer":0,"byteLength":21432,"byteOffset":568992,"byteStride":12,"target":34962},{"buffer":0,"byteLength":14288,"byteOffset":590424,"byteStride":8,"target":34962}],"buffers":[{"byteLength":604712,"uri":"rack.bin"}],"materials":[{"alphaMode":"OPAQUE","doubleSided":true,"pbrMetallicRoughness":{"baseColorFactor":[0.3486274480819702,0.3486274480819702,0.3486274480819702,1.0],"metallicFactor":0.0}},{"alphaMode":"OPAQUE","doubleSided":true,"pbrMetallicRoughness":{"baseColorFactor":[0.07137255370616913,0.07137255370616913,0.07137255370616913,1.0],"metallicFactor":0.0}},{"alphaMode":"OPAQUE","doubleSided":true,"pbrMetallicRoughness":{"baseColorFactor":[0.07137255370616913,0.07137255370616913,0.07137255370616913,1.0],"metallicFactor":0.0}}],"meshes":[{"primitives":[{"attributes":{"NORMAL":2,"POSITION":1,"TEXCOORD_0":3},"indices":0,"material":0,"mode":4}]},{"primitives":[{"attributes":{"NORMAL":6,"POSITION":5,"TEXCOORD_0":7},"indices":4,"material":1,"mode":4}]},{"primitives":[{"attributes":{"NORMAL":10,"POSITION":9,"TEXCOORD_0":11},"indices":8,"material":2,"mode":4}]}],"nodes":[{"children":[1,2,6,10],"matrix":[1.0,0.0,0.0,0.0,0.0,4.4896593387466768e-11,-1.0,0.0,0.0,1.0,4.4896593387466768e-11,0.0,0.0,0.0,0.0,1.0]},{"name":"Camera~1","rotation":[-0.7071067690849304,0.0,0.0,-0.7071067690849304],"translation":[0.13557249307632447,-1.3625940084457398,0.01116000022739172]},{"name":"rack net board fixture-1","children":[3],"rotation":[-0.7071067690849304,0.0,0.0,-0.7071067690849304],"translation":[0.13811250030994416,-0.10159999877214432,6.22120553467662e-18]},{"name":"Body_1","children":[5],"rotation":[0.0,0.0,0.0,-1.0]},{"mesh":0},{"children":[4]},{"name":"Straight Piece-1","children":[7],"rotation":[-0.5,-0.5,-0.5,-0.5],"translation":[0.2432584911584854,-0.01269999984651804,7.776506918345775e-19]},{"name":"Body_1","children":[9],"rotation":[0.0,0.0,0.0,-1.0]},{"mesh":1},{"children":[8]},{"name":"Bottom Mounting Bracket-1","children":[11],"rotation":[-0.5,0.5,0.5,-0.5],"translation":[-0.005080000031739473,-0.14605000615119935,8.942982956097641e-18]},{"name":"Body_1","children":[13],"rotation":[0.0,0.0,0.0,-1.0]},{"mesh":2},{"children":[12]}],"samplers":[{"wrapS":10497,"wrapT":10497}],"scene":0,"scenes":[{"nodes":[0]}]}