<?xml version="1.0" encoding="utf-8"?>
<!-- Generator: Adobe Illustrator 25.3.1, SVG Export Plug-In . SVG Version: 6.00 Build 0)  -->
<svg version="1.1" id="Layer_1" xmlns="http://www.w3.org/2000/svg" xmlns:xlink="http://www.w3.org/1999/xlink" x="0px" y="0px"
	 viewBox="0 0 547 365" style="enable-background:new 0 0 547 365;" xml:space="preserve">
<style type="text/css">
	.st0{fill:none;stroke:#231F20;stroke-width:4;stroke-miterlimit:10;}
	.st1{font-family:'MyriadPro-Regular';}
	.st2{font-size:43.8127px;}
	.st3{fill:none;stroke:#000000;stroke-width:3;stroke-miterlimit:10;}
	.st4{font-size:46px;}
	.st5{font-size:13px;}
	.st6{fill:none;stroke:#FF0000;stroke-width:3;stroke-miterlimit:10;}
	.st7{fill:none;stroke:#231F20;stroke-width:3;stroke-miterlimit:10;}
	.st8{font-size:14px;}
	.st9{font-size:15.0823px;}
</style>
<rect x="122.87" y="79.58" transform="matrix(6.123234e-17 -1 1 6.123234e-17 107.6624 386.5827)" class="st0" width="248.51" height="119.76"/>
<text transform="matrix(0 -1 1 0 259.9823 202.8129)" class="st1 st2">T3 GPS</text>
<g id="Battery_1_">
	
		<rect x="36.62" y="255.79" transform="matrix(-1.836970e-16 1 -1 -1.836970e-16 386.4161 245.171)" class="st3" width="68" height="120"/>
	<text transform="matrix(1 0 0 1 21.1886 327.3445)"><tspan x="0" y="0" class="st1 st4">LiPo</tspan><tspan x="6.84" y="15.6" class="st1 st5">1S 1200mAh</tspan></text>
	<line class="st6" x1="123.88" y1="297.67" x2="109.99" y2="297.67"/>
	<line class="st6" x1="116.93" y1="290.73" x2="116.93" y2="304.61"/>
	<line class="st7" x1="116.93" y1="327.34" x2="116.93" y2="341.23"/>
</g>
<g>
	<line class="st6" x1="250.31" y1="244.27" x2="250.31" y2="258.16"/>
	<line class="st6" x1="243.37" y1="251.21" x2="257.25" y2="251.21"/>
	<line class="st7" x1="279.98" y1="251.21" x2="293.87" y2="251.21"/>
</g>
<text transform="matrix(1 0 0 1 250.309 236.4513)" class="st1 st8">Power</text>
<polyline class="st6" points="250.31,263.71 250.31,297.67 130.62,297.67 "/>
<polyline class="st3" points="130.62,337.13 420.62,337.13 420.62,323.13 439.96,281.79 "/>
<polyline class="st3" points="414.62,281.79 286.92,281.79 286.92,263.71 "/>
<circle class="st3" cx="421.29" cy="281.79" r="6.67"/>
<text transform="matrix(1 0 0 1 449.709 290.7291)"><tspan x="0" y="0" class="st1 st9">Latching Push</tspan><tspan x="22.8" y="18.1" class="st1 st9">Button</tspan><tspan x="23.26" y="36.2" class="st1 st9">Switch</tspan></text>
</svg>
