<svg id="Layer_1" data-name="Layer 1" xmlns="http://www.w3.org/2000/svg" xmlns:xlink="http://www.w3.org/1999/xlink" viewBox="0 0 869 557"><defs><style>.cls-1,.cls-12,.cls-5,.cls-6,.cls-7{fill:none;}.cls-2{clip-path:url(#clip-path);}.cls-3{fill:#fff;}.cls-10,.cls-3,.cls-4,.cls-9{fill-rule:evenodd;}.cls-4{fill-opacity:0;}.cls-10,.cls-5,.cls-6{stroke:#000;}.cls-12,.cls-5,.cls-6,.cls-7{stroke-linejoin:round;}.cls-12,.cls-5,.cls-7{stroke-width:2px;}.cls-7{stroke:blue;}.cls-8{fill:blue;}.cls-10{stroke-miterlimit:10;}.cls-11{fill:red;}.cls-12{stroke:red;}</style><clipPath id="clip-path"><rect class="cls-1" y="-67" width="960" height="720"/></clipPath></defs><g class="cls-2"><path class="cls-3" d="M0-67H960V653H0Z"/><path class="cls-4" d="M187.51,254.54h161V273h-161Z"/><path d="M198.38,269.94l-1.84-4.76h.69l1.23,3.47c.09.27.18.53.25.78.07-.26.16-.52.25-.78l1.3-3.47h.64L199,269.94Zm3.07,0v-4.76h.93l1.14,3.37c.11.32.18.55.22.71l.25-.77,1.14-3.31H206v4.76h-.61v-4l-1.39,4h-.56l-1.37-4.06v4.06Zm15.19-1.87v-.55h2v1.78a3.55,3.55,0,0,1-1,.54,2.84,2.84,0,0,1-2.29-.11,2,2,0,0,1-.87-.85,2.9,2.9,0,0,1-.28-1.29,2.93,2.93,0,0,1,.28-1.29,1.87,1.87,0,0,1,.84-.89,2.57,2.57,0,0,1,1.25-.3,2.54,2.54,0,0,1,.94.17,1.48,1.48,0,0,1,.66.47,2.3,2.3,0,0,1,.36.77l-.57.15a1.72,1.72,0,0,0-.26-.56,1,1,0,0,0-.46-.34,1.51,1.51,0,0,0-.65-.13,1.89,1.89,0,0,0-.75.14,1.37,1.37,0,0,0-.52.35,1.87,1.87,0,0,0-.29.46,2.35,2.35,0,0,0-.19,1,2.39,2.39,0,0,0,.22,1.08,1.47,1.47,0,0,0,.64.64,2.1,2.1,0,0,0,.89.2,2.08,2.08,0,0,0,.8-.16A2,2,0,0,0,218,269v-.89Zm2.93,1.87v-4.76h.65l2.5,3.73v-3.73h.61v4.76h-.65l-2.5-3.75v3.75Zm4.82,0v-4.76H226a4.53,4.53,0,0,1,.84.06,1.74,1.74,0,0,1,.71.34,2.11,2.11,0,0,1,.56.83,3.22,3.22,0,0,1,.19,1.13,3.61,3.61,0,0,1-.13,1,2.05,2.05,0,0,1-.33.68,2,2,0,0,1-.43.44,2.13,2.13,0,0,1-.57.24,3.45,3.45,0,0,1-.76.07Zm.62-.56h1a2.73,2.73,0,0,0,.73-.08,1,1,0,0,0,.44-.25,1.5,1.5,0,0,0,.34-.61,2.72,2.72,0,0,0,.13-.92,2.1,2.1,0,0,0-.25-1.14,1.24,1.24,0,0,0-.59-.55,2.67,2.67,0,0,0-.82-.09h-1Zm14.41,0v.56h-3.14a.89.89,0,0,1,.06-.4,2.39,2.39,0,0,1,.39-.64,6.26,6.26,0,0,1,.77-.72,7,7,0,0,0,1.05-1,1.26,1.26,0,0,0,.28-.71.8.8,0,0,0-.25-.59.92.92,0,0,0-.66-.23.9.9,0,0,0-.67.25,1,1,0,0,0-.27.7l-.59-.06a1.45,1.45,0,0,1,.47-1,1.57,1.57,0,0,1,1.08-.36,1.49,1.49,0,0,1,1.07.38,1.19,1.19,0,0,1,.41.93,1.43,1.43,0,0,1-.12.58,2.25,2.25,0,0,1-.4.58,8.94,8.94,0,0,1-.89.83c-.35.3-.58.5-.68.61a1.62,1.62,0,0,0-.24.31Zm.84.56v-4.76h1.8a2.09,2.09,0,0,1,.87.15,1.18,1.18,0,0,1,.71,1.07,1.06,1.06,0,0,1-.17.57,1.34,1.34,0,0,1-.5.44,1.15,1.15,0,0,1,.65.44,1.12,1.12,0,0,1,.24.72,1.44,1.44,0,0,1-.14.62,1.22,1.22,0,0,1-.35.44,1.51,1.51,0,0,1-.51.24,3.46,3.46,0,0,1-.78.07Zm.64-2.76h1a2.87,2.87,0,0,0,.61-.05.83.83,0,0,0,.36-.23.75.75,0,0,0,.12-.43.68.68,0,0,0-.12-.4.5.5,0,0,0-.33-.25,2.25,2.25,0,0,0-.7-.08h-1Zm0,2.2h1.61a1,1,0,0,0,.36-.15.63.63,0,0,0,.25-.26.87.87,0,0,0,.1-.39.82.82,0,0,0-.14-.47.72.72,0,0,0-.4-.28,2.28,2.28,0,0,0-.68-.08h-1.1Zm14.06,0v.56h-3.14a.89.89,0,0,1,.06-.4,2,2,0,0,1,.39-.64,5.6,5.6,0,0,1,.77-.72,6.33,6.33,0,0,0,1-1,1.21,1.21,0,0,0,.29-.71.8.8,0,0,0-.25-.59.92.92,0,0,0-.66-.23.88.88,0,0,0-.67.25,1,1,0,0,0-.27.7l-.59-.06a1.45,1.45,0,0,1,.47-1,1.57,1.57,0,0,1,1.08-.36,1.49,1.49,0,0,1,1.07.38,1.22,1.22,0,0,1,.41.93,1.29,1.29,0,0,1-.13.58,2,2,0,0,1-.39.58,8.94,8.94,0,0,1-.89.83c-.35.3-.58.5-.68.61a1.62,1.62,0,0,0-.24.31Zm.34.56,1.83-4.76h.69l1.95,4.76h-.72l-.56-1.43h-2l-.54,1.43Zm1.38-1.95h1.62l-.5-1.33c-.15-.39-.27-.72-.34-1a7.55,7.55,0,0,1-.25.9Zm12.59,1.95h-.59v-3.73a3.41,3.41,0,0,1-.55.41c-.23.13-.44.23-.62.31v-.58a3,3,0,0,0,.85-.55,2.33,2.33,0,0,0,.54-.64h.37Zm1.2,0,1.83-4.76H273l1.95,4.76h-.72l-.56-1.43h-2l-.54,1.43Zm1.38-1.95h1.62l-.5-1.33c-.15-.39-.27-.72-.34-1a7.55,7.55,0,0,1-.25.9Zm14.44,1.95h-.59v-3.73a3.41,3.41,0,0,1-.55.41c-.23.13-.44.23-.62.31v-.58a3.25,3.25,0,0,0,.86-.55,2.27,2.27,0,0,0,.53-.64h.37Zm1.7,0v-4.76h1.8a2.18,2.18,0,0,1,.88.15,1.15,1.15,0,0,1,.51.44,1.13,1.13,0,0,1,.19.63,1.06,1.06,0,0,1-.17.57,1.27,1.27,0,0,1-.5.44,1.15,1.15,0,0,1,.65.44,1.12,1.12,0,0,1,.24.72,1.44,1.44,0,0,1-.14.62,1.22,1.22,0,0,1-.35.44,1.51,1.51,0,0,1-.51.24,3.46,3.46,0,0,1-.78.07Zm.64-2.76h1a2.87,2.87,0,0,0,.61-.05.77.77,0,0,0,.36-.23.75.75,0,0,0,.12-.43.68.68,0,0,0-.12-.4.5.5,0,0,0-.33-.25,2.25,2.25,0,0,0-.7-.08h-1Zm0,2.2h1.61a1,1,0,0,0,.36-.15.63.63,0,0,0,.25-.26.76.76,0,0,0,.1-.39.82.82,0,0,0-.14-.47.73.73,0,0,0-.39-.28,2.41,2.41,0,0,0-.69-.08h-1.1Zm14.44.56-1.84-4.76h.68l1.24,3.47c.09.27.18.53.25.78a7.83,7.83,0,0,1,.25-.78l1.3-3.47h.64l-1.88,4.76Zm3.08,0v-4.76h1.64a4.38,4.38,0,0,1,.84.06,1.68,1.68,0,0,1,.71.34,2,2,0,0,1,.56.83,3,3,0,0,1,.19,1.13,3.25,3.25,0,0,1-.13,1,2.05,2.05,0,0,1-.33.68,2,2,0,0,1-.43.44,2.13,2.13,0,0,1-.57.24,3.39,3.39,0,0,1-.76.07Zm.63-.56h1a2.87,2.87,0,0,0,.74-.08,1,1,0,0,0,.43-.25,1.63,1.63,0,0,0,.35-.61,3,3,0,0,0,.12-.92,2.1,2.1,0,0,0-.25-1.14,1.2,1.2,0,0,0-.59-.55,2.64,2.64,0,0,0-.81-.09h-1Zm4.18.56v-4.76h1.64a4.53,4.53,0,0,1,.84.06,1.64,1.64,0,0,1,.7.34,2.13,2.13,0,0,1,.57.83,3.23,3.23,0,0,1,.18,1.13,3.63,3.63,0,0,1-.12,1,2.05,2.05,0,0,1-.33.68,1.84,1.84,0,0,1-.44.44,1.93,1.93,0,0,1-.56.24,3.45,3.45,0,0,1-.76.07Zm.62-.56h1a2.73,2.73,0,0,0,.73-.08,1,1,0,0,0,.44-.25,1.5,1.5,0,0,0,.34-.61,2.72,2.72,0,0,0,.13-.92,2.1,2.1,0,0,0-.25-1.14,1.26,1.26,0,0,0-.6-.55,2.55,2.55,0,0,0-.81-.09h-1Zm13.82-1.31v-.55h2v1.78a3.46,3.46,0,0,1-1,.54,2.67,2.67,0,0,1-1,.19,2.73,2.73,0,0,1-1.27-.3,1.93,1.93,0,0,1-.87-.85,2.9,2.9,0,0,1-.28-1.29,2.93,2.93,0,0,1,.28-1.29,1.82,1.82,0,0,1,.84-.89,2.54,2.54,0,0,1,1.25-.3,2.58,2.58,0,0,1,.94.17,1.39,1.39,0,0,1,.65.47,2,2,0,0,1,.36.77l-.56.15a1.72,1.72,0,0,0-.26-.56,1,1,0,0,0-.46-.34,1.54,1.54,0,0,0-.65-.13,1.82,1.82,0,0,0-.75.14,1.37,1.37,0,0,0-.52.35,2.27,2.27,0,0,0-.3.46,2.77,2.77,0,0,0,0,2,1.49,1.49,0,0,0,.65.64,2.07,2.07,0,0,0,.89.2,2,2,0,0,0,.79-.16,2.06,2.06,0,0,0,.6-.34v-.89Zm2.92,1.87v-4.76H329l2.5,3.73v-3.73h.61v4.76h-.66l-2.5-3.75v3.75Zm4.83,0v-4.76h1.64a4.53,4.53,0,0,1,.84.06,1.64,1.64,0,0,1,.7.34,2.13,2.13,0,0,1,.57.83,3.23,3.23,0,0,1,.18,1.13,3.63,3.63,0,0,1-.12,1,2.08,2.08,0,0,1-.77,1.12,1.93,1.93,0,0,1-.56.24,3.49,3.49,0,0,1-.77.07Zm.62-.56h1a2.78,2.78,0,0,0,.73-.08,1,1,0,0,0,.44-.25,1.62,1.62,0,0,0,.34-.61,2.72,2.72,0,0,0,.13-.92,2.19,2.19,0,0,0-.25-1.14,1.26,1.26,0,0,0-.6-.55,2.55,2.55,0,0,0-.81-.09h-1Z"/><path class="cls-4" d="M187.23,300.66h172v18.49h-172Z"/><path d="M196.76,316.06v-4.77h3.44v.57h-2.81v1.45H200v.56h-2.64v1.63h2.92v.56Zm4.41,0v-4.77h.66l2.5,3.74v-3.74h.61v4.77h-.66l-2.5-3.75v3.75Zm4.29,0,1.83-4.77H208l2,4.77h-.72l-.56-1.44h-2l-.53,1.44Zm1.38-1.95h1.62l-.5-1.33c-.15-.4-.27-.73-.34-1a7.21,7.21,0,0,1-.25.91Zm8.76,1.95v-4.77h.94l1.14,3.38c.1.31.18.55.22.7,0-.18.13-.43.25-.76l1.14-3.32h.86v4.77h-.61v-4l-1.39,4h-.57L216.21,312v4.06Zm5.34-1.53.6,0a1.25,1.25,0,0,0,.2.59,1,1,0,0,0,.47.36,1.73,1.73,0,0,0,.73.14,1.83,1.83,0,0,0,.64-.1.9.9,0,0,0,.41-.3.7.7,0,0,0,.14-.41.64.64,0,0,0-.14-.39.91.91,0,0,0-.42-.28,7.35,7.35,0,0,0-.85-.23,5.16,5.16,0,0,1-.92-.3,1.24,1.24,0,0,1-.51-.44,1.09,1.09,0,0,1-.16-.59,1.2,1.2,0,0,1,.8-1.14,2,2,0,0,1,.87-.17,2.29,2.29,0,0,1,.94.17,1.29,1.29,0,0,1,.62.5,1.39,1.39,0,0,1,.24.75l-.61,0a1,1,0,0,0-.33-.68,1.25,1.25,0,0,0-.83-.24,1.3,1.3,0,0,0-.84.22.62.62,0,0,0-.25.5.5.5,0,0,0,.19.42,2.18,2.18,0,0,0,.93.35,6.8,6.8,0,0,1,1.07.29,1.57,1.57,0,0,1,.61.5,1.16,1.16,0,0,1,.2.68,1.26,1.26,0,0,1-.22.71,1.49,1.49,0,0,1-.63.52,2.22,2.22,0,0,1-.92.19,2.9,2.9,0,0,1-1.08-.19,1.51,1.51,0,0,1-.68-.56A1.59,1.59,0,0,1,220.94,314.53Zm6.63,1.53H227v-3.74a2.24,2.24,0,0,1-.54.41,3.63,3.63,0,0,1-.63.31v-.57a3.1,3.1,0,0,0,.86-.55,2.11,2.11,0,0,0,.53-.64h.38Zm7.26,0v-4.77h.94l1.14,3.38c.11.31.18.55.22.7.05-.18.14-.43.25-.76l1.14-3.32h.86v4.77h-.61v-4l-1.39,4h-.56L235.44,312v4.06Zm5.35-1.53.59,0a1.37,1.37,0,0,0,.2.59,1.09,1.09,0,0,0,.47.36,1.75,1.75,0,0,0,.74.14,1.83,1.83,0,0,0,.64-.1.92.92,0,0,0,.4-.3.64.64,0,0,0,.14-.41.59.59,0,0,0-.14-.39.86.86,0,0,0-.42-.28,7,7,0,0,0-.84-.23,4.64,4.64,0,0,1-.92-.3,1.27,1.27,0,0,1-.52-.44,1.18,1.18,0,0,1-.16-.59,1.24,1.24,0,0,1,.8-1.14,2.06,2.06,0,0,1,.88-.17,2.27,2.27,0,0,1,.93.17,1.37,1.37,0,0,1,.63.5,1.47,1.47,0,0,1,.23.75l-.61,0a1,1,0,0,0-.33-.68,1.22,1.22,0,0,0-.82-.24,1.31,1.31,0,0,0-.85.22.64.64,0,0,0-.25.5.52.52,0,0,0,.19.42,2.24,2.24,0,0,0,.94.35,6.59,6.59,0,0,1,1.06.29,1.57,1.57,0,0,1,.61.5,1.16,1.16,0,0,1,.2.68,1.26,1.26,0,0,1-.22.71,1.46,1.46,0,0,1-.62.52,2.26,2.26,0,0,1-.92.19,2.82,2.82,0,0,1-1.08-.19,1.52,1.52,0,0,1-.95-1.42Zm7.48,1v.56h-3.14a.93.93,0,0,1,.06-.41A2.56,2.56,0,0,1,245,315a6.26,6.26,0,0,1,.77-.72,6.5,6.5,0,0,0,1-1,1.23,1.23,0,0,0,.28-.7.75.75,0,0,0-.25-.59.92.92,0,0,0-.66-.24.94.94,0,0,0-.67.25,1,1,0,0,0-.27.71l-.59-.07a1.42,1.42,0,0,1,.47-1,1.57,1.57,0,0,1,1.08-.36,1.49,1.49,0,0,1,1.08.37,1.23,1.23,0,0,1,.4.94,1.47,1.47,0,0,1-.12.58,2.45,2.45,0,0,1-.39.58c-.18.19-.48.47-.89.82s-.59.51-.69.61a2.22,2.22,0,0,0-.24.32Zm8.26.56v-4.77h.94l1.14,3.38c.1.31.17.55.21.7l.25-.76,1.15-3.32h.85v4.77h-.6v-4l-1.4,4h-.56L256.53,312v4.06Zm5.34-1.53.59,0a1.25,1.25,0,0,0,.21.59,1.06,1.06,0,0,0,.46.36,1.78,1.78,0,0,0,.74.14,1.83,1.83,0,0,0,.64-.1,1,1,0,0,0,.41-.3.7.7,0,0,0,.14-.41.64.64,0,0,0-.14-.39,1,1,0,0,0-.43-.28,6.44,6.44,0,0,0-.84-.23,4.88,4.88,0,0,1-.92-.3,1.34,1.34,0,0,1-.52-.44,1.18,1.18,0,0,1-.15-.59,1.15,1.15,0,0,1,.2-.67,1.21,1.21,0,0,1,.59-.47,2.09,2.09,0,0,1,.88-.17,2.32,2.32,0,0,1,.94.17,1.29,1.29,0,0,1,.62.5,1.39,1.39,0,0,1,.24.75l-.61,0A1,1,0,0,0,264,312a1.63,1.63,0,0,0-1.67,0,.62.62,0,0,0-.25.5.52.52,0,0,0,.18.42,2.31,2.31,0,0,0,.94.35,6.29,6.29,0,0,1,1.06.29,1.5,1.5,0,0,1,.61.5,1.1,1.1,0,0,1,.21.68,1.34,1.34,0,0,1-.22.71,1.55,1.55,0,0,1-.63.52,2.26,2.26,0,0,1-.92.19,2.82,2.82,0,0,1-1.08-.19,1.59,1.59,0,0,1-.69-.56A1.67,1.67,0,0,1,261.26,314.53Zm4.42.28.58-.08a1.28,1.28,0,0,0,.35.7.83.83,0,0,0,.59.22.94.94,0,0,0,.69-.28,1,1,0,0,0,.29-.7.92.92,0,0,0-.26-.67.9.9,0,0,0-.67-.27,1.53,1.53,0,0,0-.41.08l.06-.52h.1a1.27,1.27,0,0,0,.67-.18.69.69,0,0,0,.29-.61.7.7,0,0,0-.21-.52.85.85,0,0,0-1.14,0,1.09,1.09,0,0,0-.29.64l-.57-.11a1.38,1.38,0,0,1,.46-.9,1.45,1.45,0,0,1,1-.33,1.47,1.47,0,0,1,.72.17,1.09,1.09,0,0,1,.5.45,1.11,1.11,0,0,1,.18.61.91.91,0,0,1-.17.56,1.14,1.14,0,0,1-.48.41,1,1,0,0,1,.65.41,1.15,1.15,0,0,1,.24.76,1.43,1.43,0,0,1-.47,1.07,1.61,1.61,0,0,1-1.14.42,1.42,1.42,0,0,1-1.52-1.33ZM277,316.06v-4.77h2.12a2.66,2.66,0,0,1,1,.13,1,1,0,0,1,.53.45,1.39,1.39,0,0,1,.2.72,1.2,1.2,0,0,1-.33.86,1.72,1.72,0,0,1-1,.44,3.1,3.1,0,0,1,.39.23,4.34,4.34,0,0,1,.51.64l.83,1.3h-.8l-.62-1c-.19-.29-.34-.51-.45-.65a1.27,1.27,0,0,0-.33-.33.94.94,0,0,0-.28-.12,1.63,1.63,0,0,0-.35,0h-.73v2.11Zm.64-2.66H279a1.84,1.84,0,0,0,.65-.09.76.76,0,0,0,.52-.72.7.7,0,0,0-.25-.55,1.21,1.21,0,0,0-.78-.22h-1.5Zm4.18,2.66v-4.77h3.44v.57h-2.82v1.45h2.65v.56h-2.65v1.63h2.93v.56Zm4.2-1.53.6,0a1.37,1.37,0,0,0,.2.59,1.09,1.09,0,0,0,.47.36,1.73,1.73,0,0,0,.73.14,1.89,1.89,0,0,0,.65-.1.92.92,0,0,0,.4-.3.64.64,0,0,0,.14-.41.59.59,0,0,0-.14-.39.86.86,0,0,0-.42-.28,7.61,7.61,0,0,0-.84-.23,5.05,5.05,0,0,1-.93-.3,1.24,1.24,0,0,1-.51-.44,1.09,1.09,0,0,1-.16-.59,1.24,1.24,0,0,1,.8-1.14,2,2,0,0,1,.87-.17,2.29,2.29,0,0,1,.94.17,1.37,1.37,0,0,1,.63.5,1.47,1.47,0,0,1,.23.75l-.61,0a1,1,0,0,0-.33-.68,1.22,1.22,0,0,0-.82-.24,1.31,1.31,0,0,0-.85.22.62.62,0,0,0-.25.5.5.5,0,0,0,.19.42,2.24,2.24,0,0,0,.94.35,6.59,6.59,0,0,1,1.06.29,1.57,1.57,0,0,1,.61.5,1.16,1.16,0,0,1,.2.68,1.26,1.26,0,0,1-.22.71,1.46,1.46,0,0,1-.62.52,2.26,2.26,0,0,1-.92.19A2.82,2.82,0,0,1,287,316a1.59,1.59,0,0,1-.69-.56A1.68,1.68,0,0,1,286,314.53Zm11.84,0,.6,0a1.25,1.25,0,0,0,.2.59,1,1,0,0,0,.47.36,1.73,1.73,0,0,0,.73.14,1.83,1.83,0,0,0,.64-.1.9.9,0,0,0,.41-.3.7.7,0,0,0,.14-.41.64.64,0,0,0-.14-.39.91.91,0,0,0-.42-.28,7.35,7.35,0,0,0-.85-.23,5.16,5.16,0,0,1-.92-.3,1.24,1.24,0,0,1-.51-.44,1.09,1.09,0,0,1-.16-.59,1.2,1.2,0,0,1,.8-1.14,2,2,0,0,1,.87-.17,2.29,2.29,0,0,1,.94.17,1.29,1.29,0,0,1,.62.5,1.39,1.39,0,0,1,.24.75l-.61,0a1,1,0,0,0-.33-.68,1.25,1.25,0,0,0-.83-.24,1.3,1.3,0,0,0-.84.22.62.62,0,0,0-.25.5.5.5,0,0,0,.19.42,2.18,2.18,0,0,0,.93.35,6.8,6.8,0,0,1,1.07.29,1.57,1.57,0,0,1,.61.5,1.16,1.16,0,0,1,.2.68,1.26,1.26,0,0,1-.22.71,1.49,1.49,0,0,1-.63.52,2.22,2.22,0,0,1-.92.19,2.9,2.9,0,0,1-1.08-.19,1.51,1.51,0,0,1-.68-.56A1.59,1.59,0,0,1,297.88,314.53Zm4.63,1.53v-4.77h.64v4.21h2.34v.56Zm10.66-1.53.6,0a1.37,1.37,0,0,0,.2.59,1,1,0,0,0,.47.36,1.73,1.73,0,0,0,.73.14,1.79,1.79,0,0,0,.64-.1.9.9,0,0,0,.41-.3.7.7,0,0,0,.14-.41.64.64,0,0,0-.14-.39.86.86,0,0,0-.42-.28,7.35,7.35,0,0,0-.85-.23,5.16,5.16,0,0,1-.92-.3,1.24,1.24,0,0,1-.51-.44,1.09,1.09,0,0,1-.16-.59,1.2,1.2,0,0,1,.8-1.14,2,2,0,0,1,.87-.17,2.29,2.29,0,0,1,.94.17,1.37,1.37,0,0,1,.63.5,1.47,1.47,0,0,1,.23.75l-.61,0a1,1,0,0,0-.33-.68,1.25,1.25,0,0,0-.83-.24,1.3,1.3,0,0,0-.84.22.62.62,0,0,0-.25.5.5.5,0,0,0,.19.42,2.18,2.18,0,0,0,.94.35,6.59,6.59,0,0,1,1.06.29,1.57,1.57,0,0,1,.61.5,1.16,1.16,0,0,1,.2.68,1.26,1.26,0,0,1-.22.71,1.46,1.46,0,0,1-.62.52,2.27,2.27,0,0,1-.93.19,2.81,2.81,0,0,1-1.07-.19,1.54,1.54,0,0,1-.69-.56A1.59,1.59,0,0,1,313.17,314.53Zm5.86,1.53v-4.2h-1.56v-.57h3.78v.57h-1.57v4.2Zm8.29,0v-4.77H329a3.69,3.69,0,0,1,.84.07,1.58,1.58,0,0,1,.7.34,1.94,1.94,0,0,1,.56.83,3,3,0,0,1,.19,1.12,3.52,3.52,0,0,1-.12,1,2.77,2.77,0,0,1-.33.69,2.29,2.29,0,0,1-.44.44,1.69,1.69,0,0,1-.56.23,3.44,3.44,0,0,1-.77.08Zm.63-.56h1a2.78,2.78,0,0,0,.73-.08,1.16,1.16,0,0,0,.44-.25,1.7,1.7,0,0,0,.34-.61,3,3,0,0,0,.13-.92,2.19,2.19,0,0,0-.25-1.14,1.21,1.21,0,0,0-.6-.55,2.6,2.6,0,0,0-.81-.09h-1Zm4.29.56v-4.77h.63v4.77Zm1.74,0v-4.77h2.13a2.64,2.64,0,0,1,.95.13.94.94,0,0,1,.53.45,1.31,1.31,0,0,1,.2.72,1.24,1.24,0,0,1-.32.86,1.73,1.73,0,0,1-1,.44,2.11,2.11,0,0,1,.39.23,4.37,4.37,0,0,1,.52.64l.82,1.3h-.79l-.63-1c-.19-.29-.34-.51-.45-.65a1.14,1.14,0,0,0-.33-.33.85.85,0,0,0-.28-.12,1.53,1.53,0,0,0-.34,0h-.74v2.11Zm.64-2.66H336a1.94,1.94,0,0,0,.66-.09A.76.76,0,0,0,337,313a.72.72,0,0,0,.14-.44.7.7,0,0,0-.25-.55,1.17,1.17,0,0,0-.78-.22h-1.5Z"/><path class="cls-4" d="M284.86,71.86h0A20.66,20.66,0,0,1,305.52,51.2H394.2a20.66,20.66,0,0,1,20.67,20.66v82.67A20.67,20.67,0,0,1,394.2,175.2H305.52a20.67,20.67,0,0,1-20.66-20.67Z"/><path class="cls-5" d="M284.86,71.86h0A20.66,20.66,0,0,1,305.52,51.2H394.2a20.66,20.66,0,0,1,20.67,20.66v82.67A20.67,20.67,0,0,1,394.2,175.2H305.52a20.67,20.67,0,0,1-20.66-20.67Z"/><path class="cls-4" d="M398,74.69h0a9.61,9.61,0,0,0-.21,19.21l.21-9.6Z"/><path class="cls-4" d="M398,74.69h0a9.61,9.61,0,0,0-.21,19.21"/><path class="cls-6" d="M398,74.69h0a9.61,9.61,0,0,0-.21,19.21"/><path class="cls-4" d="M398,93.91h0a9.61,9.61,0,0,0-.21,19.21l.21-9.61Z"/><path class="cls-4" d="M398,93.91h0a9.61,9.61,0,0,0-.21,19.21"/><path class="cls-6" d="M398,93.91h0a9.61,9.61,0,0,0-.21,19.21"/><path class="cls-4" d="M398,113.12h0a9.61,9.61,0,0,0-.21,19.21l.21-9.61Z"/><path class="cls-4" d="M398,113.12h0a9.61,9.61,0,0,0-.21,19.21"/><path class="cls-6" d="M398,113.12h0a9.61,9.61,0,0,0-.21,19.21"/><path class="cls-4" d="M398,132.33h0a9.61,9.61,0,0,0-.21,19.21l.21-9.6Z"/><path class="cls-4" d="M398,132.33h0a9.61,9.61,0,0,0-.21,19.21"/><path class="cls-6" d="M398,132.33h0a9.61,9.61,0,0,0-.21,19.21"/><path class="cls-4" d="M441.64,74.56,398,74.68"/><path class="cls-6" d="M441.64,74.56,398,74.68"/><path class="cls-4" d="M432.67,151.38l-34.87.16"/><path class="cls-6" d="M432.67,151.38l-34.87.16"/><path class="cls-4" d="M302.87,74.69h0a9.61,9.61,0,0,1,.21,19.21l-.21-9.6Z"/><path class="cls-4" d="M302.87,74.69h0a9.61,9.61,0,0,1,.21,19.21"/><path class="cls-6" d="M302.87,74.69h0a9.61,9.61,0,0,1,.21,19.21"/><path class="cls-4" d="M302.87,93.91h0a9.61,9.61,0,0,1,.21,19.21l-.21-9.61Z"/><path class="cls-4" d="M302.87,93.91h0a9.61,9.61,0,0,1,.21,19.21"/><path class="cls-6" d="M302.87,93.91h0a9.61,9.61,0,0,1,.21,19.21"/><path class="cls-4" d="M302.87,113.12h0a9.61,9.61,0,0,1,.21,19.21l-.21-9.61Z"/><path class="cls-4" d="M302.87,113.12h0a9.61,9.61,0,0,1,.21,19.21"/><path class="cls-6" d="M302.87,113.12h0a9.61,9.61,0,0,1,.21,19.21"/><path class="cls-4" d="M302.87,132.33h0a9.61,9.61,0,0,1,.21,19.21l-.21-9.6Z"/><path class="cls-4" d="M302.87,132.33h0a9.61,9.61,0,0,1,.21,19.21"/><path class="cls-6" d="M302.87,132.33h0a9.61,9.61,0,0,1,.21,19.21"/><path class="cls-4" d="M241.64,74.38l61.23.31"/><path class="cls-6" d="M241.64,74.38l61.23.31"/><path class="cls-6" d="M256.28,151.54h46.77"/><path class="cls-4" d="M326.44,113.2h0a24,24,0,0,1,24-24h0a24,24,0,0,1,24,24h0a24,24,0,0,1-24,24h0A24,24,0,0,1,326.44,113.2Z"/><path class="cls-5" d="M326.44,113.2h0a24,24,0,0,1,24-24h0a24,24,0,0,1,24,24h0a24,24,0,0,1-24,24h0A24,24,0,0,1,326.44,113.2Z"/><path class="cls-4" d="M343.24,106h14.4v14.39h-14.4Z"/><path class="cls-5" d="M343.24,106h14.4v14.39h-14.4Z"/><path class="cls-4" d="M242.65,260.29l-.91-186.18"/><path class="cls-6" d="M242.65,260.29l-.91-186.18"/><path class="cls-4" d="M256.86,259.69l-.09-108.35"/><path class="cls-6" d="M256.86,259.69l-.09-108.35"/><path class="cls-4" d="M432.32,151.15l.1,39.46"/><path class="cls-6" d="M432.32,151.15l.1,39.46"/><path class="cls-4" d="M275,259.38l1-69"/><path class="cls-6" d="M275,259.38l1-69"/><path class="cls-4" d="M276.16,191l156.51-.85"/><path class="cls-6" d="M276.16,191l156.51-.85"/><path class="cls-6" d="M441.14,74.87V200.39"/><path class="cls-4" d="M291.28,200.83l-.51,59"/><path class="cls-6" d="M291.28,200.83l-.51,59"/><path class="cls-4" d="M291.38,201.36l150.39-.5"/><path class="cls-6" d="M291.38,201.36l150.39-.5"/><path class="cls-4" d="M597.28,254.54h161V273h-161Z"/><path d="M608.16,269.94l-1.85-4.76H607l1.23,3.47c.1.27.18.53.25.78.08-.26.16-.52.25-.78l1.3-3.47h.64l-1.87,4.76Zm3.06,0v-4.76h.94l1.14,3.37c.1.32.18.55.22.71.05-.18.13-.44.25-.77l1.14-3.31h.86v4.76h-.61v-4l-1.39,4h-.57l-1.37-4.06v4.06Zm15.19-1.87v-.55h2v1.78a3.6,3.6,0,0,1-1,.54,2.81,2.81,0,0,1-2.28-.11,2,2,0,0,1-.88-.85,3,3,0,0,1-.28-1.29,3.08,3.08,0,0,1,.28-1.29,1.84,1.84,0,0,1,.85-.89,2.7,2.7,0,0,1,2.18-.13,1.42,1.42,0,0,1,.66.47,2,2,0,0,1,.36.77l-.56.15a1.72,1.72,0,0,0-.27-.56.93.93,0,0,0-.45-.34,1.59,1.59,0,0,0-.66-.13,1.89,1.89,0,0,0-.75.14,1.26,1.26,0,0,0-.51.35,1.65,1.65,0,0,0-.3.46,2.35,2.35,0,0,0-.19,1,2.53,2.53,0,0,0,.22,1.08,1.52,1.52,0,0,0,.64.64,2.1,2.1,0,0,0,.89.2,2,2,0,0,0,.8-.16,1.87,1.87,0,0,0,.59-.34v-.89Zm2.93,1.87v-4.76H630l2.5,3.73v-3.73h.61v4.76h-.66l-2.5-3.75v3.75Zm4.82,0v-4.76h1.64a4.58,4.58,0,0,1,.85.06,1.7,1.7,0,0,1,.7.34,2,2,0,0,1,.56.83,3,3,0,0,1,.19,1.13,3.25,3.25,0,0,1-.13,1,2.26,2.26,0,0,1-.32.68,1.63,1.63,0,0,1-1,.68,3.55,3.55,0,0,1-.77.07Zm.63-.56h1a2.81,2.81,0,0,0,.74-.08,1,1,0,0,0,.43-.25,1.51,1.51,0,0,0,.35-.61,3,3,0,0,0,.12-.92,2.1,2.1,0,0,0-.25-1.14,1.2,1.2,0,0,0-.59-.55,2.64,2.64,0,0,0-.81-.09h-1Zm14.4,0v.56h-3.14a.77.77,0,0,1,.07-.4,2,2,0,0,1,.39-.64,5.44,5.44,0,0,1,.76-.72,7,7,0,0,0,1.05-1,1.19,1.19,0,0,0,.28-.71.76.76,0,0,0-.25-.59,1,1,0,0,0-1.33,0,1,1,0,0,0-.26.7l-.6-.06a1.49,1.49,0,0,1,.47-1,1.57,1.57,0,0,1,1.08-.36,1.5,1.5,0,0,1,1.08.38,1.21,1.21,0,0,1,.4.93,1.43,1.43,0,0,1-.12.58,2,2,0,0,1-.39.58,10.26,10.26,0,0,1-.89.83c-.36.3-.58.5-.69.61a2.06,2.06,0,0,0-.23.31Zm.85.56v-4.76h1.79a2.14,2.14,0,0,1,.88.15,1.1,1.1,0,0,1,.51.44,1.13,1.13,0,0,1,.19.63,1,1,0,0,1-.17.57.46.46,0,1,0,.16.88,1.17,1.17,0,0,1,.23.72,1.44,1.44,0,0,1-.14.62,1.2,1.2,0,0,1-.34.44,1.67,1.67,0,0,1-.52.24,3.46,3.46,0,0,1-.78.07Zm.64-2.76h1a2.81,2.81,0,0,0,.61-.05.73.73,0,0,0,.36-.23.69.69,0,0,0,.13-.43.62.62,0,0,0-.13-.4.5.5,0,0,0-.33-.25,2.2,2.2,0,0,0-.7-.08h-1Zm0,2.2h1.61a1.18,1.18,0,0,0,.36-.15.78.78,0,0,0,.25-.26.86.86,0,0,0,.09-.39.82.82,0,0,0-.14-.47.66.66,0,0,0-.39-.28,2.41,2.41,0,0,0-.69-.08h-1.09Zm14.05,0v.56h-3.14a.77.77,0,0,1,.07-.4,2,2,0,0,1,.39-.64,5.44,5.44,0,0,1,.76-.72,7,7,0,0,0,1.05-1,1.19,1.19,0,0,0,.28-.71.76.76,0,0,0-.25-.59.92.92,0,0,0-.66-.23.9.9,0,0,0-.67.25,1,1,0,0,0-.26.7l-.6-.06a1.45,1.45,0,0,1,.47-1,1.57,1.57,0,0,1,1.08-.36,1.5,1.5,0,0,1,1.08.38,1.21,1.21,0,0,1,.4.93,1.43,1.43,0,0,1-.12.58,2,2,0,0,1-.39.58,12,12,0,0,1-.89.83,8.83,8.83,0,0,0-.69.61,2.06,2.06,0,0,0-.23.31Zm.35.56,1.82-4.76h.69l1.95,4.76h-.71l-.57-1.43h-2l-.53,1.43Zm1.37-1.95h1.63l-.5-1.33c-.16-.39-.27-.72-.35-1a6,6,0,0,1-.25.9Zm12.6,1.95h-.6v-3.73a3,3,0,0,1-.55.41,5.11,5.11,0,0,1-.62.31v-.58a3.25,3.25,0,0,0,.86-.55,2.11,2.11,0,0,0,.53-.64h.38Zm1.2,0,1.83-4.76h.68l2,4.76H684l-.57-1.43h-2l-.53,1.43Zm1.37-1.95h1.63l-.5-1.33c-.16-.39-.27-.72-.35-1a6,6,0,0,1-.25.9Zm14.45,1.95h-.6v-3.73a3,3,0,0,1-.55.41,5.11,5.11,0,0,1-.62.31v-.58a3.25,3.25,0,0,0,.86-.55,2.11,2.11,0,0,0,.53-.64h.38Zm1.7,0v-4.76h1.79a2.14,2.14,0,0,1,.88.15,1.1,1.1,0,0,1,.51.44,1.13,1.13,0,0,1,.19.63,1,1,0,0,1-.17.57.46.46,0,1,0,.16.88,1.17,1.17,0,0,1,.23.72,1.44,1.44,0,0,1-.14.62,1.2,1.2,0,0,1-.34.44,1.67,1.67,0,0,1-.52.24,3.46,3.46,0,0,1-.78.07Zm.64-2.76h1a2.81,2.81,0,0,0,.61-.05.73.73,0,0,0,.36-.23.69.69,0,0,0,.13-.43.62.62,0,0,0-.13-.4.5.5,0,0,0-.33-.25,2.2,2.2,0,0,0-.7-.08h-1Zm0,2.2H700a1.18,1.18,0,0,0,.36-.15.78.78,0,0,0,.25-.26.86.86,0,0,0,.09-.39.82.82,0,0,0-.14-.47.66.66,0,0,0-.39-.28,2.41,2.41,0,0,0-.69-.08h-1.09Zm14.43.56L711,265.18h.69l1.23,3.47c.1.27.18.53.25.78.08-.26.16-.52.25-.78l1.3-3.47h.64l-1.88,4.76Zm3.08,0v-4.76h1.65a4.53,4.53,0,0,1,.84.06,1.7,1.7,0,0,1,.7.34,2,2,0,0,1,.56.83,3,3,0,0,1,.19,1.13,3.63,3.63,0,0,1-.12,1,2.53,2.53,0,0,1-.33.68,2,2,0,0,1-.44.44,1.93,1.93,0,0,1-.56.24,3.49,3.49,0,0,1-.77.07Zm.63-.56h1a2.78,2.78,0,0,0,.73-.08,1,1,0,0,0,.44-.25,1.62,1.62,0,0,0,.34-.61,3,3,0,0,0,.13-.92,2.19,2.19,0,0,0-.25-1.14,1.26,1.26,0,0,0-.6-.55,2.6,2.6,0,0,0-.81-.09h-1Zm4.18.56v-4.76h1.64a4.58,4.58,0,0,1,.85.06,1.7,1.7,0,0,1,.7.34,2,2,0,0,1,.56.83,3,3,0,0,1,.19,1.13,3.25,3.25,0,0,1-.13,1,2.26,2.26,0,0,1-.32.68,2.29,2.29,0,0,1-.44.44,2.2,2.2,0,0,1-.56.24,3.55,3.55,0,0,1-.77.07Zm.63-.56h1a2.87,2.87,0,0,0,.74-.08,1,1,0,0,0,.43-.25,1.63,1.63,0,0,0,.35-.61,3,3,0,0,0,.12-.92,2.1,2.1,0,0,0-.25-1.14,1.2,1.2,0,0,0-.59-.55,2.64,2.64,0,0,0-.81-.09h-1Zm13.81-1.31v-.55h2v1.78a3.76,3.76,0,0,1-1,.54,2.72,2.72,0,0,1-1,.19,2.66,2.66,0,0,1-1.26-.3,2,2,0,0,1-.88-.85,2.9,2.9,0,0,1-.28-1.29,2.93,2.93,0,0,1,.28-1.29,1.87,1.87,0,0,1,.84-.89,2.6,2.6,0,0,1,1.25-.3,2.54,2.54,0,0,1,.94.17,1.48,1.48,0,0,1,.66.47,2.3,2.3,0,0,1,.36.77l-.56.15a2,2,0,0,0-.27-.56,1,1,0,0,0-.45-.34,1.59,1.59,0,0,0-.66-.13,1.89,1.89,0,0,0-.75.14,1.37,1.37,0,0,0-.52.35,1.87,1.87,0,0,0-.29.46,2.35,2.35,0,0,0-.19,1,2.39,2.39,0,0,0,.22,1.08,1.47,1.47,0,0,0,.64.64,2.1,2.1,0,0,0,.89.2,2,2,0,0,0,.8-.16,1.87,1.87,0,0,0,.59-.34v-.89Zm2.93,1.87v-4.76h.65l2.5,3.73v-3.73h.61v4.76h-.65l-2.5-3.75v3.75Zm4.82,0v-4.76h1.64a4.38,4.38,0,0,1,.84.06,1.68,1.68,0,0,1,.71.34,2,2,0,0,1,.56.83,3,3,0,0,1,.19,1.13,3.25,3.25,0,0,1-.13,1,2.05,2.05,0,0,1-.33.68,2,2,0,0,1-.43.44,2.13,2.13,0,0,1-.57.24,3.39,3.39,0,0,1-.76.07Zm.63-.56h1a2.87,2.87,0,0,0,.74-.08,1,1,0,0,0,.43-.25,1.63,1.63,0,0,0,.35-.61,3,3,0,0,0,.12-.92,2.1,2.1,0,0,0-.25-1.14,1.2,1.2,0,0,0-.59-.55,2.64,2.64,0,0,0-.81-.09h-1Z"/><path class="cls-4" d="M597,300.66H769v18.49H597Z"/><path d="M606.54,316.06v-4.77H610v.57h-2.82v1.45h2.64v.56h-2.64v1.63h2.93v.56Zm4.41,0v-4.77h.65l2.5,3.74v-3.74h.61v4.77h-.65l-2.5-3.75v3.75Zm4.29,0,1.83-4.77h.68l2,4.77H619l-.56-1.44h-2l-.53,1.44Zm1.37-1.95h1.63l-.5-1.33a9.1,9.1,0,0,1-.34-1,9.41,9.41,0,0,1-.25.91Zm8.76,1.95v-4.77h.94l1.14,3.38c.11.31.18.55.22.7.05-.18.14-.43.25-.76l1.14-3.32h.86v4.77h-.61v-4l-1.39,4h-.56L626,312v4.06Zm5.35-1.53.59,0a1.37,1.37,0,0,0,.2.59,1.09,1.09,0,0,0,.47.36,1.78,1.78,0,0,0,.74.14,1.83,1.83,0,0,0,.64-.1.92.92,0,0,0,.4-.3.64.64,0,0,0,.14-.41.59.59,0,0,0-.14-.39.86.86,0,0,0-.42-.28,7,7,0,0,0-.84-.23,4.64,4.64,0,0,1-.92-.3,1.27,1.27,0,0,1-.52-.44,1.18,1.18,0,0,1-.16-.59,1.24,1.24,0,0,1,.8-1.14,2.06,2.06,0,0,1,.88-.17,2.27,2.27,0,0,1,.93.17,1.37,1.37,0,0,1,.63.5,1.47,1.47,0,0,1,.23.75l-.61,0a1,1,0,0,0-.33-.68,1.22,1.22,0,0,0-.82-.24,1.31,1.31,0,0,0-.85.22.64.64,0,0,0-.25.5.52.52,0,0,0,.19.42,2.24,2.24,0,0,0,.94.35,6.59,6.59,0,0,1,1.06.29,1.57,1.57,0,0,1,.61.5,1.1,1.1,0,0,1,.2.68,1.26,1.26,0,0,1-.22.71,1.46,1.46,0,0,1-.62.52,2.26,2.26,0,0,1-.92.19,2.82,2.82,0,0,1-1.08-.19,1.52,1.52,0,0,1-.95-1.42Zm6.62,1.53h-.59v-3.74a2.54,2.54,0,0,1-.55.41,4,4,0,0,1-.62.31v-.57a3.25,3.25,0,0,0,.86-.55,2.27,2.27,0,0,0,.53-.64h.37Zm7.27,0v-4.77h.94l1.14,3.38.22.7c.05-.18.13-.43.25-.76l1.14-3.32h.86v4.77h-.61v-4l-1.39,4h-.57L645.22,312v4.06Zm5.34-1.53.59,0a1.37,1.37,0,0,0,.21.59,1,1,0,0,0,.47.36,1.7,1.7,0,0,0,.73.14,1.83,1.83,0,0,0,.64-.1,1,1,0,0,0,.41-.3.7.7,0,0,0,.14-.41.64.64,0,0,0-.14-.39,1,1,0,0,0-.42-.28,7.35,7.35,0,0,0-.85-.23,4.88,4.88,0,0,1-.92-.3,1.34,1.34,0,0,1-.52-.44,1.18,1.18,0,0,1-.15-.59,1.22,1.22,0,0,1,.2-.67,1.21,1.21,0,0,1,.59-.47,2.09,2.09,0,0,1,.88-.17,2.32,2.32,0,0,1,.94.17,1.29,1.29,0,0,1,.62.5,1.39,1.39,0,0,1,.24.75l-.61,0a1,1,0,0,0-.33-.68,1.25,1.25,0,0,0-.83-.24,1.28,1.28,0,0,0-.84.22.62.62,0,0,0-.25.5.52.52,0,0,0,.18.42,2.31,2.31,0,0,0,.94.35,6.29,6.29,0,0,1,1.06.29,1.43,1.43,0,0,1,.61.5,1.1,1.1,0,0,1,.21.68,1.34,1.34,0,0,1-.22.71,1.55,1.55,0,0,1-.63.52,2.22,2.22,0,0,1-.92.19,2.82,2.82,0,0,1-1.08-.19,1.51,1.51,0,0,1-.68-.56A1.59,1.59,0,0,1,650,314.53Zm7.49,1v.56H654.3a.93.93,0,0,1,.06-.41,2.08,2.08,0,0,1,.39-.64,6.07,6.07,0,0,1,.76-.72,6.09,6.09,0,0,0,1-1,1.17,1.17,0,0,0,.28-.7.75.75,0,0,0-.25-.59.88.88,0,0,0-.65-.24,1,1,0,0,0-.68.25,1,1,0,0,0-.26.71l-.59-.07a1.42,1.42,0,0,1,.46-1,1.57,1.57,0,0,1,1.08-.36,1.49,1.49,0,0,1,1.08.37,1.24,1.24,0,0,1,.41.94,1.48,1.48,0,0,1-.13.58,2,2,0,0,1-.39.58,10.53,10.53,0,0,1-.89.82l-.69.61a2.13,2.13,0,0,0-.23.32Zm8.25.56v-4.77h.94l1.14,3.38c.1.31.18.55.22.7,0-.18.13-.43.25-.76l1.14-3.32h.86v4.77h-.61v-4l-1.39,4h-.56L666.3,312v4.06Zm5.34-1.53.6,0a1.37,1.37,0,0,0,.2.59,1,1,0,0,0,.47.36,1.73,1.73,0,0,0,.73.14,1.79,1.79,0,0,0,.64-.1.9.9,0,0,0,.41-.3.7.7,0,0,0,.14-.41.64.64,0,0,0-.14-.39.86.86,0,0,0-.42-.28,7.35,7.35,0,0,0-.85-.23,5.16,5.16,0,0,1-.92-.3,1.24,1.24,0,0,1-.51-.44,1.09,1.09,0,0,1-.16-.59,1.2,1.2,0,0,1,.8-1.14,2,2,0,0,1,.87-.17,2.29,2.29,0,0,1,.94.17,1.37,1.37,0,0,1,.63.5,1.47,1.47,0,0,1,.23.75l-.61,0a1,1,0,0,0-.33-.68,1.25,1.25,0,0,0-.83-.24,1.3,1.3,0,0,0-.84.22.62.62,0,0,0-.25.5.5.5,0,0,0,.19.42,2.24,2.24,0,0,0,.94.35,6.59,6.59,0,0,1,1.06.29,1.57,1.57,0,0,1,.61.5,1.16,1.16,0,0,1,.2.68,1.26,1.26,0,0,1-.22.71,1.46,1.46,0,0,1-.62.52,2.27,2.27,0,0,1-.93.19A2.81,2.81,0,0,1,672,316a1.55,1.55,0,0,1-1-1.42Zm4.43.28.58-.08a1.28,1.28,0,0,0,.34.7.85.85,0,0,0,.59.22.94.94,0,0,0,.69-.28.92.92,0,0,0,.3-.7.89.89,0,0,0-.27-.67.9.9,0,0,0-.67-.27,1.61,1.61,0,0,0-.41.08l.07-.52h.09a1.27,1.27,0,0,0,.67-.18.69.69,0,0,0,.3-.61.67.67,0,0,0-.22-.52.75.75,0,0,0-.56-.22.81.81,0,0,0-.58.22,1,1,0,0,0-.28.64l-.58-.11a1.38,1.38,0,0,1,.47-.9,1.43,1.43,0,0,1,1-.33,1.47,1.47,0,0,1,.72.17,1.24,1.24,0,0,1,.69,1.06,1,1,0,0,1-.17.56,1.24,1.24,0,0,1-.49.41,1.09,1.09,0,0,1,.66.41,1.21,1.21,0,0,1,.23.76,1.4,1.4,0,0,1-.47,1.07,1.61,1.61,0,0,1-1.14.42,1.55,1.55,0,0,1-1-.36A1.49,1.49,0,0,1,675.46,314.81Zm11.33,1.25v-4.77h2.13a2.64,2.64,0,0,1,1,.13.94.94,0,0,1,.53.45,1.31,1.31,0,0,1,.2.72,1.24,1.24,0,0,1-.32.86,1.73,1.73,0,0,1-1,.44,2.11,2.11,0,0,1,.39.23,4.37,4.37,0,0,1,.52.64l.82,1.3h-.79l-.63-1c-.19-.29-.34-.51-.45-.65a1.14,1.14,0,0,0-.33-.33.85.85,0,0,0-.28-.12,1.53,1.53,0,0,0-.34,0h-.74v2.11Zm.64-2.66h1.36a1.94,1.94,0,0,0,.66-.09.76.76,0,0,0,.37-.28.72.72,0,0,0,.14-.44.7.7,0,0,0-.25-.55,1.17,1.17,0,0,0-.78-.22h-1.5Zm4.18,2.66v-4.77h3.44v.57h-2.81v1.45h2.64v.56h-2.64v1.63h2.92v.56Zm4.21-1.53.59,0a1.25,1.25,0,0,0,.21.59,1.06,1.06,0,0,0,.46.36,1.78,1.78,0,0,0,.74.14,1.83,1.83,0,0,0,.64-.1,1,1,0,0,0,.41-.3.7.7,0,0,0,.14-.41.64.64,0,0,0-.14-.39,1,1,0,0,0-.43-.28,6.44,6.44,0,0,0-.84-.23,4.88,4.88,0,0,1-.92-.3,1.34,1.34,0,0,1-.52-.44,1.18,1.18,0,0,1-.15-.59,1.15,1.15,0,0,1,.2-.67,1.21,1.21,0,0,1,.59-.47,2.09,2.09,0,0,1,.88-.17,2.32,2.32,0,0,1,.94.17,1.29,1.29,0,0,1,.62.5,1.48,1.48,0,0,1,.24.75l-.61,0a1,1,0,0,0-.33-.68,1.63,1.63,0,0,0-1.67,0,.62.62,0,0,0-.25.5.52.52,0,0,0,.18.42,2.31,2.31,0,0,0,.94.35,6.29,6.29,0,0,1,1.06.29,1.5,1.5,0,0,1,.61.5,1.1,1.1,0,0,1,.21.68,1.34,1.34,0,0,1-.22.71,1.55,1.55,0,0,1-.63.52,2.26,2.26,0,0,1-.92.19,2.82,2.82,0,0,1-1.08-.19,1.59,1.59,0,0,1-.69-.56A1.67,1.67,0,0,1,695.82,314.53Zm11.84,0,.59,0a1.37,1.37,0,0,0,.2.59,1.09,1.09,0,0,0,.47.36,1.78,1.78,0,0,0,.74.14,1.83,1.83,0,0,0,.64-.1.92.92,0,0,0,.4-.3.64.64,0,0,0,.14-.41.59.59,0,0,0-.14-.39.86.86,0,0,0-.42-.28,7,7,0,0,0-.84-.23,4.64,4.64,0,0,1-.92-.3,1.27,1.27,0,0,1-.52-.44,1.18,1.18,0,0,1-.16-.59,1.24,1.24,0,0,1,.8-1.14,2.06,2.06,0,0,1,.88-.17,2.27,2.27,0,0,1,.93.17,1.37,1.37,0,0,1,.63.5,1.47,1.47,0,0,1,.23.75l-.61,0a1,1,0,0,0-.33-.68,1.22,1.22,0,0,0-.82-.24,1.31,1.31,0,0,0-.85.22.64.64,0,0,0-.25.5.52.52,0,0,0,.19.42,2.24,2.24,0,0,0,.94.35,6.59,6.59,0,0,1,1.06.29,1.57,1.57,0,0,1,.61.5,1.1,1.1,0,0,1,.2.68,1.26,1.26,0,0,1-.22.71,1.46,1.46,0,0,1-.62.52,2.26,2.26,0,0,1-.92.19,2.82,2.82,0,0,1-1.08-.19,1.52,1.52,0,0,1-1-1.42Zm4.62,1.53v-4.77h.64v4.21h2.35v.56ZM723,314.53l.59,0a1.37,1.37,0,0,0,.2.59,1.09,1.09,0,0,0,.47.36,1.78,1.78,0,0,0,.74.14,1.83,1.83,0,0,0,.64-.1.86.86,0,0,0,.4-.3.64.64,0,0,0,.14-.41.59.59,0,0,0-.14-.39.86.86,0,0,0-.42-.28,6.44,6.44,0,0,0-.84-.23,4.64,4.64,0,0,1-.92-.3,1.34,1.34,0,0,1-.52-.44,1.18,1.18,0,0,1-.16-.59,1.24,1.24,0,0,1,.8-1.14,2.06,2.06,0,0,1,.88-.17,2.27,2.27,0,0,1,.93.17,1.32,1.32,0,0,1,.63.5,1.38,1.38,0,0,1,.23.75l-.61,0a1,1,0,0,0-.32-.68,1.26,1.26,0,0,0-.83-.24,1.31,1.31,0,0,0-.85.22.64.64,0,0,0-.25.5.52.52,0,0,0,.19.42,2.31,2.31,0,0,0,.94.35,6.59,6.59,0,0,1,1.06.29,1.5,1.5,0,0,1,.61.5,1.1,1.1,0,0,1,.2.68,1.33,1.33,0,0,1-.21.71,1.55,1.55,0,0,1-.63.52,2.26,2.26,0,0,1-.92.19,2.82,2.82,0,0,1-1.08-.19,1.59,1.59,0,0,1-.69-.56A1.67,1.67,0,0,1,723,314.53Zm5.86,1.53v-4.2h-1.56v-.57H731v.57h-1.58v4.2Zm8.29,0v-4.77h1.64a3.64,3.64,0,0,1,.84.07,1.62,1.62,0,0,1,.71.34,2,2,0,0,1,.56.83,3.2,3.2,0,0,1,.19,1.12,3.16,3.16,0,0,1-.13,1,2.21,2.21,0,0,1-.33.69,2.25,2.25,0,0,1-.43.44,1.84,1.84,0,0,1-.57.23,3.41,3.41,0,0,1-.76.08Zm.62-.56h1a2.73,2.73,0,0,0,.73-.08,1.08,1.08,0,0,0,.44-.25,1.72,1.72,0,0,0,.35-.61,3.07,3.07,0,0,0,.12-.92,2.1,2.1,0,0,0-.25-1.14,1.2,1.2,0,0,0-.59-.55,2.67,2.67,0,0,0-.82-.09h-1Zm4.3.56v-4.77h.62v4.77Zm1.74,0v-4.77h2.12a2.6,2.6,0,0,1,1,.13.94.94,0,0,1,.53.45,1.32,1.32,0,0,1,.21.72,1.2,1.2,0,0,1-.33.86,1.73,1.73,0,0,1-1,.44,2.11,2.11,0,0,1,.39.23,4.37,4.37,0,0,1,.52.64l.83,1.3h-.8l-.62-1a7,7,0,0,0-.46-.65,1.12,1.12,0,0,0-.32-.33.89.89,0,0,0-.29-.12,1.48,1.48,0,0,0-.34,0h-.73v2.11Zm.64-2.66h1.36a1.84,1.84,0,0,0,.65-.09.76.76,0,0,0,.52-.72.73.73,0,0,0-.25-.55,1.21,1.21,0,0,0-.78-.22h-1.5Z"/><path class="cls-4" d="M694.63,71.86h0A20.66,20.66,0,0,1,715.3,51.2H804a20.67,20.67,0,0,1,20.67,20.66v82.67A20.68,20.68,0,0,1,804,175.2H715.3a20.67,20.67,0,0,1-20.67-20.67Z"/><path class="cls-5" d="M694.63,71.86h0A20.66,20.66,0,0,1,715.3,51.2H804a20.67,20.67,0,0,1,20.67,20.66v82.67A20.68,20.68,0,0,1,804,175.2H715.3a20.67,20.67,0,0,1-20.67-20.67Z"/><path class="cls-4" d="M807.78,74.69h0a9.61,9.61,0,0,0-.2,19.21l.2-9.6Z"/><path class="cls-4" d="M807.78,74.69h0a9.61,9.61,0,0,0-.2,19.21"/><path class="cls-6" d="M807.78,74.69h0a9.61,9.61,0,0,0-.2,19.21"/><path class="cls-4" d="M807.78,93.91h0a9.61,9.61,0,0,0-.2,19.21l.2-9.61Z"/><path class="cls-4" d="M807.78,93.91h0a9.61,9.61,0,0,0-.2,19.21"/><path class="cls-6" d="M807.78,93.91h0a9.61,9.61,0,0,0-.2,19.21"/><path class="cls-4" d="M807.78,113.12h0a9.61,9.61,0,0,0-.2,19.21l.2-9.61Z"/><path class="cls-4" d="M807.78,113.12h0a9.61,9.61,0,0,0-.2,19.21"/><path class="cls-6" d="M807.78,113.12h0a9.61,9.61,0,0,0-.2,19.21"/><path class="cls-4" d="M807.78,132.33h0a9.61,9.61,0,0,0-.2,19.21l.2-9.6Z"/><path class="cls-4" d="M807.78,132.33h0a9.61,9.61,0,0,0-.2,19.21"/><path class="cls-6" d="M807.78,132.33h0a9.61,9.61,0,0,0-.2,19.21"/><path class="cls-4" d="M851.41,74.56l-43.62.12"/><path class="cls-6" d="M851.41,74.56l-43.62.12"/><path class="cls-4" d="M842.44,151.38l-34.86.16"/><path class="cls-6" d="M842.44,151.38l-34.86.16"/><path class="cls-4" d="M712.65,74.69h0a9.61,9.61,0,0,1,.2,19.21l-.2-9.6Z"/><path class="cls-4" d="M712.65,74.69h0a9.61,9.61,0,0,1,.2,19.21"/><path class="cls-6" d="M712.65,74.69h0a9.61,9.61,0,0,1,.2,19.21"/><path class="cls-4" d="M712.65,93.91h0a9.61,9.61,0,0,1,.2,19.21l-.2-9.61Z"/><path class="cls-4" d="M712.65,93.91h0a9.61,9.61,0,0,1,.2,19.21"/><path class="cls-6" d="M712.65,93.91h0a9.61,9.61,0,0,1,.2,19.21"/><path class="cls-4" d="M712.65,113.12h0a9.61,9.61,0,0,1,.2,19.21l-.2-9.61Z"/><path class="cls-4" d="M712.65,113.12h0a9.61,9.61,0,0,1,.2,19.21"/><path class="cls-6" d="M712.65,113.12h0a9.61,9.61,0,0,1,.2,19.21"/><path class="cls-4" d="M712.65,132.33h0a9.61,9.61,0,0,1,.2,19.21l-.2-9.6Z"/><path class="cls-4" d="M712.65,132.33h0a9.61,9.61,0,0,1,.2,19.21"/><path class="cls-6" d="M712.65,132.33h0a9.61,9.61,0,0,1,.2,19.21"/><path class="cls-4" d="M651.42,74.38l61.23.31"/><path class="cls-6" d="M651.42,74.38l61.23.31"/><path class="cls-4" d="M669.25,151.6l43.6-.06"/><path class="cls-6" d="M669.25,151.6l43.6-.06"/><path class="cls-4" d="M736.21,113.2h0a24,24,0,0,1,24-24h0a24,24,0,0,1,24,24h0a24,24,0,0,1-24,24h0A24,24,0,0,1,736.21,113.2Z"/><path class="cls-5" d="M736.21,113.2h0a24,24,0,0,1,24-24h0a24,24,0,0,1,24,24h0a24,24,0,0,1-24,24h0A24,24,0,0,1,736.21,113.2Z"/><path class="cls-4" d="M753,106h14.39v14.39H753Z"/><path class="cls-5" d="M753,106h14.39v14.39H753Z"/><path class="cls-4" d="M652.43,260.29l-.92-186.18"/><path class="cls-6" d="M652.43,260.29l-.92-186.18"/><path class="cls-4" d="M668.88,259.85l.56-108.57"/><path class="cls-6" d="M668.88,259.85l.56-108.57"/><path class="cls-4" d="M842.1,151.15l.09,39.46"/><path class="cls-6" d="M842.1,151.15l.09,39.46"/><path class="cls-4" d="M684.79,259.38l1-69"/><path class="cls-6" d="M684.79,259.38l1-69"/><path class="cls-4" d="M685.94,191l156.5-.85"/><path class="cls-6" d="M685.94,191l156.5-.85"/><path class="cls-6" d="M850.91,74.87V200.39"/><path class="cls-4" d="M701.05,200.83l-.5,59"/><path class="cls-6" d="M701.05,200.83l-.5,59"/><path class="cls-4" d="M701.15,201.36l150.39-.5"/><path class="cls-6" d="M701.15,201.36l150.39-.5"/><path class="cls-4" d="M293.27,395.24H596.79v92H293.27Z"/><path class="cls-7" d="M293.27,395.24H596.79v92H293.27Z"/><path class="cls-4" d="M410.44,415.2l166.48-.76"/><path class="cls-6" d="M410.44,415.2l166.48-.76"/><path class="cls-4" d="M410.87,405l.19,10"/><path class="cls-6" d="M410.87,405l.19,10"/><path class="cls-4" d="M576.66,405.16l-.06,9.73"/><path class="cls-6" d="M576.66,405.16l-.06,9.73"/><path class="cls-6" d="M498.48,414.4v11.49"/><path class="cls-4" d="M463.08,417.3h70.8V440h-70.8Z"/><path d="M481.41,435.26v-6.67h2.29a5.14,5.14,0,0,1,1.19.1,2.22,2.22,0,0,1,1,.47,2.68,2.68,0,0,1,.78,1.15,4.55,4.55,0,0,1,.26,1.58,5.11,5.11,0,0,1-.17,1.36,3.35,3.35,0,0,1-.45,1,2.42,2.42,0,0,1-.61.59,2.8,2.8,0,0,1-.8.35,5,5,0,0,1-1.08.1Zm.89-.78h1.42a3.49,3.49,0,0,0,1-.12,1.72,1.72,0,0,0,.61-.35,2.09,2.09,0,0,0,.48-.84,4.08,4.08,0,0,0,.18-1.3,3.13,3.13,0,0,0-.35-1.61,1.74,1.74,0,0,0-.83-.75,3.51,3.51,0,0,0-1.15-.14H482.3Zm6,.78v-6.67h.87v6.67Zm5.56-2.62v-.78h2.83v2.48a4.91,4.91,0,0,1-1.35.78,4,4,0,0,1-1.42.25,3.84,3.84,0,0,1-1.79-.42,2.75,2.75,0,0,1-1.21-1.22,3.85,3.85,0,0,1-.4-1.78,4.13,4.13,0,0,1,.4-1.81,2.69,2.69,0,0,1,1.17-1.25,3.62,3.62,0,0,1,1.77-.42,3.58,3.58,0,0,1,1.3.23,2.21,2.21,0,0,1,.92.66,2.69,2.69,0,0,1,.51,1.09l-.79.22a2.84,2.84,0,0,0-.39-.8,1.49,1.49,0,0,0-.64-.46,2.27,2.27,0,0,0-.91-.18,2.74,2.74,0,0,0-1.05.19,2,2,0,0,0-.72.49,2.59,2.59,0,0,0-.42.65,3.77,3.77,0,0,0-.25,1.35,3.4,3.4,0,0,0,.3,1.5,2.06,2.06,0,0,0,.91.89,3,3,0,0,0,1.25.28,3.1,3.1,0,0,0,1.12-.22,3,3,0,0,0,.83-.47v-1.25Zm4.29,2.62v-6.67H499v6.67Zm4.14,0v-5.89h-2.21v-.78h5.3v.78h-2.22v5.89Zm2.56,0,2.57-6.67h.95l2.73,6.67h-1l-.78-2h-2.8l-.73,2Zm1.92-2.73H509l-.69-1.86c-.22-.56-.38-1-.48-1.37a7.45,7.45,0,0,1-.36,1.26Zm5,2.73v-6.67h.87v5.89H516v.78Z"/><path class="cls-4" d="M419.1,462.24H540.9v25H419.1Z"/><path d="M428.6,480.51l1.11-.1a2.08,2.08,0,0,0,.56,1.22,1.61,1.61,0,0,0,1.1.41,1.69,1.69,0,0,0,1.28-.58,2.18,2.18,0,0,0,.53-1.52,1.91,1.91,0,0,0-.52-1.42,1.73,1.73,0,0,0-1.32-.53,2,2,0,0,0-.93.23,1.94,1.94,0,0,0-.64.6l-1-.13.83-4.4h4.28v1h-3.44L430,477.6a2.77,2.77,0,0,1,1.61-.55,2.54,2.54,0,0,1,1.89.78,2.76,2.76,0,0,1,.78,2,3.19,3.19,0,0,1-.67,2,2.75,2.75,0,0,1-2.25,1,2.8,2.8,0,0,1-1.92-.66A2.63,2.63,0,0,1,428.6,480.51Zm9.55,2.25-3.33-8.6h1.24l2.23,6.25q.27.75.45,1.41c.14-.47.3-.94.47-1.41l2.32-6.25h1.15l-3.36,8.6Z"/><path d="M481.06,479.38v-1h3.62v3.18a6.24,6.24,0,0,1-1.72,1,5.2,5.2,0,0,1-1.83.33,5.1,5.1,0,0,1-2.31-.53,3.64,3.64,0,0,1-1.56-1.57,5,5,0,0,1-.52-2.29,5.29,5.29,0,0,1,.52-2.35,3.48,3.48,0,0,1,1.51-1.61A4.78,4.78,0,0,1,481,474a4.54,4.54,0,0,1,1.69.3,2.72,2.72,0,0,1,1.17.84,3.7,3.7,0,0,1,.66,1.41l-1,.28a3.19,3.19,0,0,0-.5-1,2,2,0,0,0-.81-.6,3,3,0,0,0-1.17-.23,3.68,3.68,0,0,0-1.36.23,2.63,2.63,0,0,0-.93.63,3.33,3.33,0,0,0-.53.86,4.43,4.43,0,0,0-.33,1.72,4.35,4.35,0,0,0,.4,1.94,2.59,2.59,0,0,0,1.15,1.14,3.56,3.56,0,0,0,1.61.37,3.8,3.8,0,0,0,1.44-.28,4,4,0,0,0,1.06-.61v-1.61Zm5.3,3.38v-8.6h1.15l4.52,6.75v-6.75h1.09v8.6H492L487.44,476v6.75Zm8.66,0v-8.6h3a6.6,6.6,0,0,1,1.53.13,2.87,2.87,0,0,1,1.25.61,3.4,3.4,0,0,1,1,1.48,5.58,5.58,0,0,1,.34,2,5.73,5.73,0,0,1-.23,1.74,4.26,4.26,0,0,1-.58,1.25,3,3,0,0,1-.8.78,3.46,3.46,0,0,1-1,.44,6.31,6.31,0,0,1-1.38.14Zm1.14-1H498a4.39,4.39,0,0,0,1.35-.16,1.73,1.73,0,0,0,.76-.45,2.58,2.58,0,0,0,.63-1.08,5.34,5.34,0,0,0,.23-1.65,3.93,3.93,0,0,0-.45-2.07,2.25,2.25,0,0,0-1.06-1,4.82,4.82,0,0,0-1.47-.17h-1.82Z"/><path class="cls-4" d="M328,436.69H468v25H328Z"/><path class="cls-8" d="M340.92,455.06V443.6h3.45l2.08,7.82,2.06-7.82H352v11.46h-2.16v-9l-2.26,9h-2.24l-2.26-9v9Zm13.34-9.43v-2h2.19v2Zm0,9.43v-8.3h2.19v8.3Zm11.68-5.85-2.17.39a1.57,1.57,0,0,0-.5-1,1.45,1.45,0,0,0-1-.33,1.63,1.63,0,0,0-1.31.58,2.84,2.84,0,0,0-.49,1.89,3.36,3.36,0,0,0,.5,2.08,1.67,1.67,0,0,0,1.33.61,1.49,1.49,0,0,0,1-.35,2.14,2.14,0,0,0,.57-1.23l2.16.37a3.88,3.88,0,0,1-1.3,2.25,4,4,0,0,1-2.54.75,3.82,3.82,0,0,1-2.91-1.14,5.27,5.27,0,0,1,0-6.39,3.89,3.89,0,0,1,2.94-1.14,3.93,3.93,0,0,1,2.4.66A3.52,3.52,0,0,1,365.94,449.21Zm3.76,5.85h-2.19v-8.3h2v1.17a3.89,3.89,0,0,1,.94-1.09,1.73,1.73,0,0,1,.95-.27,2.91,2.91,0,0,1,1.46.41l-.69,1.92a1.91,1.91,0,0,0-1-.36,1.23,1.23,0,0,0-.78.25,1.76,1.76,0,0,0-.5.92,12.38,12.38,0,0,0-.19,2.78Zm3.62-4.27a4.43,4.43,0,0,1,.53-2.11,3.6,3.6,0,0,1,1.53-1.56,4.51,4.51,0,0,1,2.22-.55,4.17,4.17,0,0,1,3.08,1.22,4.21,4.21,0,0,1,1.2,3.09,4.31,4.31,0,0,1-1.22,3.13,4.08,4.08,0,0,1-3.05,1.23,4.88,4.88,0,0,1-2.18-.51,3.57,3.57,0,0,1-1.58-1.52A5,5,0,0,1,373.32,450.79Zm2.25.11a2.81,2.81,0,0,0,.57,1.89,1.89,1.89,0,0,0,1.46.66,1.85,1.85,0,0,0,1.44-.66,2.78,2.78,0,0,0,.59-1.91A2.72,2.72,0,0,0,379,449a1.85,1.85,0,0,0-1.44-.66,1.89,1.89,0,0,0-1.46.66A2.81,2.81,0,0,0,375.57,450.9Zm15.27-1.69-2.17.39a1.57,1.57,0,0,0-.5-1,1.47,1.47,0,0,0-1-.33,1.63,1.63,0,0,0-1.31.58,2.84,2.84,0,0,0-.49,1.89,3.36,3.36,0,0,0,.5,2.08,1.65,1.65,0,0,0,1.33.61,1.46,1.46,0,0,0,1-.35,2.09,2.09,0,0,0,.58-1.23l2.16.37a3.88,3.88,0,0,1-1.3,2.25,4,4,0,0,1-2.54.75,3.82,3.82,0,0,1-2.91-1.14,5.27,5.27,0,0,1,0-6.39,3.89,3.89,0,0,1,2.94-1.14,3.93,3.93,0,0,1,2.4.66A3.52,3.52,0,0,1,390.84,449.21Zm1.15,1.58a4.55,4.55,0,0,1,.53-2.11,3.6,3.6,0,0,1,1.53-1.56,4.51,4.51,0,0,1,2.22-.55,4.15,4.15,0,0,1,3.08,1.22,4.21,4.21,0,0,1,1.2,3.09,4.31,4.31,0,0,1-1.22,3.13,4.08,4.08,0,0,1-3,1.23,4.92,4.92,0,0,1-2.19-.51,3.57,3.57,0,0,1-1.58-1.52A5.12,5.12,0,0,1,392,450.79Zm2.25.11a2.76,2.76,0,0,0,.58,1.89,1.87,1.87,0,0,0,1.45.66,1.85,1.85,0,0,0,1.44-.66,2.78,2.78,0,0,0,.59-1.91,2.72,2.72,0,0,0-.59-1.87,1.85,1.85,0,0,0-1.44-.66,1.87,1.87,0,0,0-1.45.66A2.76,2.76,0,0,0,394.24,450.9Zm15.58,4.16h-2.2v-4.24a6.66,6.66,0,0,0-.14-1.73,1.22,1.22,0,0,0-.45-.63,1.37,1.37,0,0,0-.77-.22,1.73,1.73,0,0,0-1,.32,1.59,1.59,0,0,0-.63.82,7.27,7.27,0,0,0-.17,1.91v3.77h-2.19v-8.3h2V448a3.34,3.34,0,0,1,2.74-1.41,3.19,3.19,0,0,1,1.33.27,2,2,0,0,1,.9.65,2.42,2.42,0,0,1,.44.93,6.87,6.87,0,0,1,.12,1.48Zm6-8.3v1.75h-1.5v3.34a8.4,8.4,0,0,0,0,1.19.64.64,0,0,0,.19.27.68.68,0,0,0,.38.11,2.87,2.87,0,0,0,.89-.21l.19,1.71a4.57,4.57,0,0,1-1.74.32,2.73,2.73,0,0,1-1.08-.2,1.74,1.74,0,0,1-.7-.51,1.93,1.93,0,0,1-.3-.86,9.74,9.74,0,0,1-.08-1.55v-3.61h-1v-1.75h1V445.1l2.21-1.28v2.94Zm3.62,8.3h-2.18v-8.3h2v1.17a3.74,3.74,0,0,1,.93-1.09,1.76,1.76,0,0,1,1-.27,2.87,2.87,0,0,1,1.45.41L422,448.9a1.89,1.89,0,0,0-1-.36,1.23,1.23,0,0,0-.78.25,1.84,1.84,0,0,0-.5.92,13,13,0,0,0-.19,2.78Zm3.62-4.27a4.55,4.55,0,0,1,.53-2.11,3.72,3.72,0,0,1,1.53-1.56,4.51,4.51,0,0,1,2.22-.55,4.15,4.15,0,0,1,3.08,1.22,4.21,4.21,0,0,1,1.2,3.09,4.27,4.27,0,0,1-1.22,3.13,4.06,4.06,0,0,1-3,1.23,5,5,0,0,1-2.19-.51,3.63,3.63,0,0,1-1.58-1.52A5.12,5.12,0,0,1,423.09,450.79Zm2.25.11a2.76,2.76,0,0,0,.58,1.89,1.87,1.87,0,0,0,1.45.66,1.85,1.85,0,0,0,1.44-.66,2.78,2.78,0,0,0,.59-1.91,2.72,2.72,0,0,0-.59-1.87,1.85,1.85,0,0,0-1.44-.66,1.87,1.87,0,0,0-1.45.66A2.76,2.76,0,0,0,425.34,450.9Zm8,4.16V443.6h2.19v11.46Zm4.44,0V443.6H440v11.46Zm9.25-2.64,2.18.36a3.68,3.68,0,0,1-1.32,1.84,3.94,3.94,0,0,1-2.29.62,3.72,3.72,0,0,1-3.2-1.42,4.77,4.77,0,0,1-.81-2.86,4.56,4.56,0,0,1,1.08-3.22,3.53,3.53,0,0,1,2.72-1.17,3.68,3.68,0,0,1,2.92,1.22,5.37,5.37,0,0,1,1,3.75h-5.5a2.24,2.24,0,0,0,.51,1.52,1.73,1.73,0,0,0,1.29.54,1.31,1.31,0,0,0,.86-.28A1.78,1.78,0,0,0,447.07,452.42Zm.12-2.22a2.13,2.13,0,0,0-.48-1.46,1.54,1.54,0,0,0-1.14-.5,1.5,1.5,0,0,0-1.19.54,2,2,0,0,0-.47,1.42Zm6.07,4.86h-2.19v-8.3h2v1.17a3.74,3.74,0,0,1,.93-1.09,1.74,1.74,0,0,1,1-.27,2.87,2.87,0,0,1,1.45.41l-.69,1.92a1.89,1.89,0,0,0-1-.36,1.23,1.23,0,0,0-.78.25,1.76,1.76,0,0,0-.5.92,12.38,12.38,0,0,0-.19,2.78Z"/><path class="cls-6" d="M284.53,320.54v18.74"/><path class="cls-6" d="M302.87,320.54v18.74"/><path class="cls-6" d="M284.86,338.78h18.23"/><path class="cls-6" d="M694.63,320.54v18.74"/><path class="cls-6" d="M713,320.54v18.74"/><path class="cls-6" d="M695,338.78h18.23"/><path class="cls-4" d="M537.06,395l0-32.47"/><path class="cls-6" d="M537.06,395l0-32.47"/><path class="cls-6" d="M536.58,362.8H746.47"/><path class="cls-6" d="M745.91,320.4v42.93"/><path class="cls-6" d="M568.14,378V395.4"/><path class="cls-6" d="M729,364.32V378.9"/><path class="cls-6" d="M568.42,378.53H729.55"/><path class="cls-4" d="M729,320.54l0,40.92"/><path class="cls-6" d="M729,320.54l0,40.92"/><path class="cls-6" d="M319.23,320.3V354"/><path class="cls-4" d="M318.92,353.45l159.37,0"/><path class="cls-6" d="M318.92,353.45l159.37,0"/><path class="cls-4" d="M477.71,353.16l0,41.76"/><path class="cls-6" d="M477.71,353.16l0,41.76"/><path class="cls-4" d="M333.29,367.25l113.11,0"/><path class="cls-6" d="M333.29,367.25l113.11,0"/><path class="cls-6" d="M446.34,366.77v28.31"/><path class="cls-4" d="M333.72,320.54l0,31.21"/><path class="cls-6" d="M333.72,320.54l0,31.21"/><path class="cls-4" d="M333.69,355.5l0,11.75"/><path class="cls-6" d="M333.69,355.5l0,11.75"/><path class="cls-6" d="M83,140.73v66.33"/><path class="cls-4" d="M70.18,207.58l25.67,0"/><path class="cls-6" d="M70.18,207.58l25.67,0"/><path class="cls-6" d="M74.76,210.75H91.27"/><path class="cls-4" d="M77.67,213.67l10.68.07"/><path class="cls-6" d="M77.67,213.67l10.68.07"/><path class="cls-6" d="M437.55,487.14v53.32"/><path class="cls-4" d="M437,540.61l366.74,0"/><path class="cls-6" d="M437,540.61l366.74,0"/><path class="cls-6" d="M719.57,259.79V229.46"/><path class="cls-4" d="M719.13,229.85l84.44,0"/><path class="cls-6" d="M719.13,229.85l84.44,0"/><path class="cls-4" d="M803.56,229.88,803.5,541"/><path class="cls-6" d="M803.56,229.88,803.5,541"/><path class="cls-6" d="M741.18,259.92V245.18"/><path class="cls-6" d="M740.67,245.73h35"/><path class="cls-4" d="M775.18,245.3l0,25.16"/><path class="cls-6" d="M775.18,245.3l0,25.16"/><path class="cls-4" d="M762.33,270.46l25.67,0"/><path class="cls-6" d="M762.33,270.46l25.67,0"/><path class="cls-6" d="M766.92,273.64h16.5"/><path class="cls-4" d="M769.83,276.56l10.68.06"/><path class="cls-6" d="M769.83,276.56l10.68.06"/><path class="cls-6" d="M674.1,320.4v41"/><path class="cls-6" d="M674.1,364.41v13"/><path class="cls-6" d="M674.1,379.65v161.6"/><path class="cls-4" d="M653.23,320.53l0,14.55"/><path class="cls-6" d="M653.23,320.53l0,14.55"/><path class="cls-4" d="M633.23,320.53l0,14.55"/><path class="cls-6" d="M633.23,320.53l0,14.55"/><path class="cls-6" d="M408,335.06H674.74"/><path class="cls-4" d="M309.42,259.85l0-37"/><path class="cls-6" d="M309.42,259.85l0-37"/><path class="cls-4" d="M309.06,223.33l99.84,0"/><path class="cls-6" d="M309.06,223.33l99.84,0"/><path class="cls-6" d="M408.39,222.88V335.61"/><path class="cls-4" d="M44.48,101.82h0A38.39,38.39,0,0,1,82.87,63.43h0a38.39,38.39,0,0,1,38.39,38.39h0a38.39,38.39,0,0,1-38.39,38.4h0A38.39,38.39,0,0,1,44.48,101.82Z"/><path class="cls-5" d="M44.48,101.82h0A38.39,38.39,0,0,1,82.87,63.43h0a38.39,38.39,0,0,1,38.39,38.39h0a38.39,38.39,0,0,1-38.39,38.4h0A38.39,38.39,0,0,1,44.48,101.82Z"/><path class="cls-9" d="M75.81,76.07h4.8v-4.8h4.52v4.8h4.8v4.52h-4.8v4.8H80.61v-4.8h-4.8Z"/><path class="cls-6" d="M75.81,76.07h4.8v-4.8h4.52v4.8h4.8v4.52h-4.8v4.8H80.61v-4.8h-4.8Z"/><path class="cls-9" d="M76.31,123.84H90.43v4.52H76.31Z"/><path class="cls-6" d="M76.31,123.84H90.43v4.52H76.31Z"/><path class="cls-4" d="M-8.87,77.82H52.36v48H-8.87Z"/><path d="M11.23,97.74H9.59V87.29A8.09,8.09,0,0,1,8,88.43a10.84,10.84,0,0,1-1.72.85v-1.6a10,10,0,0,0,2.41-1.56,6.13,6.13,0,0,0,1.45-1.78h1.06Zm9,0H18.58V87.29A8.09,8.09,0,0,1,17,88.43a10.43,10.43,0,0,1-1.72.85v-1.6a10,10,0,0,0,2.41-1.56,6.13,6.13,0,0,0,1.45-1.78h1.06Zm5.11,0V95.87h1.88v1.87Zm10.45,0H34.14V87.29a8.09,8.09,0,0,1-1.56,1.14,10.84,10.84,0,0,1-1.72.85v-1.6a10,10,0,0,0,2.41-1.56,6.3,6.3,0,0,0,1.45-1.78h1.06Z"/><path d="M20.77,119.74,15.6,106.38h1.92L21,116.09c.28.78.52,1.51.7,2.19q.31-1.09.72-2.19L26,106.38h1.8l-5.24,13.36Z"/><path class="cls-6" d="M83,62.92V17.22"/><path class="cls-4" d="M82.46,17.65l530.45,0"/><path class="cls-6" d="M82.46,17.65l530.45,0"/><path class="cls-6" d="M83.27,39.42h73.32"/><path class="cls-4" d="M156.06,39.38l0,46.05"/><path class="cls-6" d="M156.06,39.38l0,46.05"/><path class="cls-4" d="M82.54,164.3l74,0"/><path class="cls-6" d="M82.54,164.3l74,0"/><path class="cls-6" d="M135.06,85.38h42"/><path class="cls-4" d="M136.4,94.63h0a48,48,0,0,1,39.51.21l-20,43.64Z"/><path class="cls-4" d="M136.4,94.63h0a48,48,0,0,1,39.51.21"/><path class="cls-6" d="M136.4,94.63h0a48,48,0,0,1,39.51.21"/><path class="cls-6" d="M156,90.8v74"/><path class="cls-4" d="M143.84,62.14h61.23V84.88H143.84Z"/><path d="M163.69,78.31V76h-4.14V75l4.34-6.19h1V75h1.28V76h-1.28v2.28Zm0-3.35v-4.3l-3,4.3ZM167.42,70V68.89h6.18v.92a12.82,12.82,0,0,0-1.81,2.58,15.46,15.46,0,0,0-1.37,3.3,11.73,11.73,0,0,0-.46,2.62h-1.2a11.52,11.52,0,0,1,.44-2.71,14.46,14.46,0,0,1,1.2-3.08,12.8,12.8,0,0,1,1.69-2.5Z"/><path d="M177.23,77.05a1.33,1.33,0,0,0,.86-.3,1.4,1.4,0,0,0,.38-1.12v-4h1.67v4.67a1.72,1.72,0,0,0,.05.44.54.54,0,0,0,.09.2.32.32,0,0,0,.09.08l.08,0,.44.85a2.18,2.18,0,0,1-1,.43h0a1.09,1.09,0,0,1-1.09-.57,2,2,0,0,1-1.58.68,2.35,2.35,0,0,1-1.3-.37v2.76h-1.7v-9.2h1.7v4a1.51,1.51,0,0,0,.36,1A1.28,1.28,0,0,0,177.23,77.05Z"/><path d="M182.48,78.31V68.77h6.44v1.12h-5.17v3h4.46V74h-4.46v4.32Z"/><path class="cls-4" d="M222.43,259.87l0-12.76"/><path class="cls-6" d="M222.43,259.87l0-12.76"/><path class="cls-6" d="M166.06,247.09v36.63"/><path class="cls-4" d="M153.24,283.46l25.67,0"/><path class="cls-6" d="M153.24,283.46l25.67,0"/><path class="cls-6" d="M157.82,286.64h16.51"/><path class="cls-4" d="M160.73,289.56l10.68.06"/><path class="cls-6" d="M160.73,289.56l10.68.06"/><path class="cls-6" d="M331.82,259.64V242.31"/><path class="cls-4" d="M331.35,242.85l35,0"/><path class="cls-6" d="M331.35,242.85l35,0"/><path class="cls-6" d="M365.79,242.44v26.39"/><path class="cls-4" d="M353,269l25.67,0"/><path class="cls-6" d="M353,269l25.67,0"/><path class="cls-6" d="M357.55,272.2h16.5"/><path class="cls-4" d="M360.46,275.12l10.68.06"/><path class="cls-6" d="M360.46,275.12l10.68.06"/><path class="cls-4" d="M166.06,247.69l35.31,0"/><path class="cls-6" d="M166.06,247.69l35.31,0"/><path class="cls-4" d="M203.86,247.67l19.09,0"/><path class="cls-6" d="M203.86,247.67l19.09,0"/><path class="cls-4" d="M185.22,181.23l-.07,24.63"/><path class="cls-6" d="M185.22,181.23l-.07,24.63"/><path class="cls-4" d="M202.87,174.65l-17.51,12.63"/><path class="cls-6" d="M202.87,174.65l-17.51,12.63"/><path class="cls-4" d="M185.39,199.8l17.26,13.76"/><path class="cls-6" d="M185.39,199.8l12.57,10"/><path class="cls-10" d="M196.93,211.11l4.58,1.54L199,208.53Z"/><path class="cls-4" d="M185.33,194.21l-48,0"/><path class="cls-6" d="M185.33,194.21l-48,0"/><path class="cls-6" d="M137.84,193.67V381.36"/><path class="cls-4" d="M137.42,381.29l283.72,0"/><path class="cls-6" d="M137.42,381.29l283.72,0"/><path class="cls-4" d="M420.5,380.84l0,14.24"/><path class="cls-6" d="M420.5,380.84l0,14.24"/><path class="cls-4" d="M202.73,17.61l-.06,157.77"/><path class="cls-6" d="M202.73,17.61l-.06,157.77"/><path class="cls-6" d="M202.67,213.43v46.33"/><path class="cls-4" d="M507.08,337.57,507,395.34"/><path class="cls-6" d="M507.08,337.57,507,395.34"/><path class="cls-6" d="M507,145.32V332.88"/><path class="cls-4" d="M595,132.87l-.07,24.63"/><path class="cls-6" d="M595,132.87l-.07,24.63"/><path class="cls-4" d="M612.63,126.29l-17.51,12.63"/><path class="cls-6" d="M612.63,126.29l-17.51,12.63"/><path class="cls-4" d="M595.15,151.44l17.26,13.76"/><path class="cls-6" d="M595.15,151.44l12.57,10"/><path class="cls-10" d="M606.69,162.76l4.58,1.53-2.52-4.12Z"/><path class="cls-4" d="M595.09,145.85l-88.57,0"/><path class="cls-6" d="M595.09,145.85l-88.57,0"/><path class="cls-4" d="M612.23,165.13,612,259.3"/><path class="cls-6" d="M612.23,165.13,612,259.3"/><path class="cls-4" d="M612.42,17.05l0,109.67"/><path class="cls-6" d="M612.42,17.05l0,109.67"/><path class="cls-4" d="M491.14,487.14l0,25.16"/><path class="cls-6" d="M491.14,487.14l0,25.16"/><path class="cls-4" d="M478.29,512.3l25.67,0"/><path class="cls-6" d="M478.29,512.3l25.67,0"/><path class="cls-6" d="M482.87,515.48h16.51"/><path class="cls-4" d="M485.78,518.4l10.68.06"/><path class="cls-6" d="M485.78,518.4l10.68.06"/><path class="cls-4" d="M614,280H735.8v19.21H614Z"/><path class="cls-11" d="M629.46,291.3l1.87-.17a2.38,2.38,0,0,0,.69,1.39,2.08,2.08,0,0,0,1.39.43,2.19,2.19,0,0,0,1.41-.39,1.2,1.2,0,0,0,.46-.92.84.84,0,0,0-.2-.58,1.64,1.64,0,0,0-.69-.42c-.23-.07-.74-.21-1.54-.41a5.26,5.26,0,0,1-2.18-1,2.48,2.48,0,0,1-.87-1.92,2.51,2.51,0,0,1,.41-1.36,2.58,2.58,0,0,1,1.18-1,4.84,4.84,0,0,1,1.89-.33,4,4,0,0,1,2.71.8,2.77,2.77,0,0,1,1,2.09l-1.92.08a1.55,1.55,0,0,0-.53-1,2,2,0,0,0-1.24-.33,2.21,2.21,0,0,0-1.31.34.7.7,0,0,0-.3.59.74.74,0,0,0,.28.58,4.86,4.86,0,0,0,1.77.64,9,9,0,0,1,2.08.69,2.62,2.62,0,0,1,1.06,1,3,3,0,0,1-.08,3.06,2.77,2.77,0,0,1-1.29,1.06,5.42,5.42,0,0,1-2.07.35,4.19,4.19,0,0,1-2.78-.83A3.67,3.67,0,0,1,629.46,291.3ZM642,287.5V289h-1.25v2.78a8.23,8.23,0,0,0,0,1,.48.48,0,0,0,.17.23.46.46,0,0,0,.31.1,2.62,2.62,0,0,0,.74-.17l.15,1.42a3.87,3.87,0,0,1-1.45.26,2.56,2.56,0,0,1-.89-.15,1.42,1.42,0,0,1-.58-.44,1.84,1.84,0,0,1-.26-.72,9,9,0,0,1-.05-1.28v-3h-.85V287.5h.85v-1.37l1.83-1.08v2.45Zm5.26,4.7,1.83.32a3,3,0,0,1-1.11,1.53,3.33,3.33,0,0,1-1.89.51,3.09,3.09,0,0,1-2.67-1.17,4,4,0,0,1-.69-2.39,3.85,3.85,0,0,1,.89-2.69,3,3,0,0,1,2.28-1,3.07,3.07,0,0,1,2.44,1,4.46,4.46,0,0,1,.84,3.12H644.6a1.84,1.84,0,0,0,.43,1.27,1.42,1.42,0,0,0,1.07.45,1.11,1.11,0,0,0,.72-.23A1.42,1.42,0,0,0,647.25,292.2Zm.11-1.84a1.71,1.71,0,0,0-.4-1.2,1.3,1.3,0,0,0-1.94,0,1.72,1.72,0,0,0-.39,1.19Zm3.26-2.86h1.7v1a2.42,2.42,0,0,1,.89-.85,2.53,2.53,0,0,1,1.27-.33,2.62,2.62,0,0,1,2,.94,3.81,3.81,0,0,1,.84,2.63,4,4,0,0,1-.84,2.7,2.66,2.66,0,0,1-2,.95,2.36,2.36,0,0,1-1-.22,3.44,3.44,0,0,1-1-.79V297h-1.83Zm1.81,3.33a2.73,2.73,0,0,0,.45,1.73,1.44,1.44,0,0,0,1.13.55,1.33,1.33,0,0,0,1.06-.5,2.69,2.69,0,0,0,.42-1.69,2.52,2.52,0,0,0-.43-1.61,1.4,1.4,0,0,0-2.19,0A2.31,2.31,0,0,0,652.43,290.83Zm6.33-3.33h1.7v1a2.42,2.42,0,0,1,.89-.85,2.53,2.53,0,0,1,1.27-.33,2.62,2.62,0,0,1,2,.94,3.81,3.81,0,0,1,.84,2.63,4,4,0,0,1-.84,2.7,2.64,2.64,0,0,1-2,.95,2.36,2.36,0,0,1-1-.22,3.44,3.44,0,0,1-1-.79V297h-1.83Zm1.81,3.33a2.67,2.67,0,0,0,.46,1.73,1.4,1.4,0,0,0,1.12.55,1.33,1.33,0,0,0,1.06-.5,2.69,2.69,0,0,0,.42-1.69,2.52,2.52,0,0,0-.43-1.61,1.35,1.35,0,0,0-1.08-.53,1.37,1.37,0,0,0-1.11.52A2.31,2.31,0,0,0,660.57,290.83ZM671,292.2l1.83.32a3,3,0,0,1-1.11,1.53,3.33,3.33,0,0,1-1.89.51,3.12,3.12,0,0,1-2.68-1.17,4,4,0,0,1-.68-2.39,3.8,3.8,0,0,1,.89-2.69,3,3,0,0,1,2.28-1,3.08,3.08,0,0,1,2.44,1,4.51,4.51,0,0,1,.84,3.12h-4.58a1.84,1.84,0,0,0,.44,1.27,1.38,1.38,0,0,0,1.06.45,1.11,1.11,0,0,0,.72-.23A1.43,1.43,0,0,0,671,292.2Zm.11-1.84a1.72,1.72,0,0,0-.41-1.2,1.26,1.26,0,0,0-.95-.43,1.28,1.28,0,0,0-1,.44,1.72,1.72,0,0,0-.39,1.19Zm5.05,4.05h-1.83V287.5H676v1a3.07,3.07,0,0,1,.78-.92,1.49,1.49,0,0,1,.79-.22,2.35,2.35,0,0,1,1.21.35l-.57,1.59a1.6,1.6,0,0,0-.86-.3,1,1,0,0,0-.65.22,1.39,1.39,0,0,0-.42.77,10,10,0,0,0-.16,2.3Zm7.16-9.55h3.51a6.42,6.42,0,0,1,1.81.19,3,3,0,0,1,1.44.89,3.84,3.84,0,0,1,.92,1.54,7,7,0,0,1,.32,2.25,6,6,0,0,1-.3,2,4.13,4.13,0,0,1-1,1.69,3.21,3.21,0,0,1-1.35.76,5.56,5.56,0,0,1-1.7.21h-3.62Zm1.92,1.62v6.32h1.44a4.67,4.67,0,0,0,1.17-.1,1.58,1.58,0,0,0,.76-.39,1.85,1.85,0,0,0,.5-.92,5.83,5.83,0,0,0,.21-1.75,5.23,5.23,0,0,0-.21-1.69,2,2,0,0,0-.54-.92,1.65,1.65,0,0,0-.88-.45,8.63,8.63,0,0,0-1.59-.1Zm9.44,7.93H692.8V287.5h1.7v1a3.07,3.07,0,0,1,.78-.92,1.52,1.52,0,0,1,.8-.22,2.29,2.29,0,0,1,1.2.35l-.56,1.59a1.62,1.62,0,0,0-.86-.3,1,1,0,0,0-.66.22,1.53,1.53,0,0,0-.42.77,10.85,10.85,0,0,0-.15,2.3Zm3.43-7.85v-1.7h1.83v1.7Zm0,7.85V287.5h1.83v6.91Zm5.61,0-2.78-6.91h1.91l1.31,3.52.37,1.18c.1-.3.16-.5.19-.59l.19-.59,1.33-3.52h1.87l-2.75,6.91Zm9.51-2.21,1.83.32a3,3,0,0,1-1.11,1.53,3.33,3.33,0,0,1-1.89.51,3.12,3.12,0,0,1-2.68-1.17,4,4,0,0,1-.68-2.39,3.8,3.8,0,0,1,.89-2.69,3,3,0,0,1,2.28-1,3.08,3.08,0,0,1,2.44,1,4.51,4.51,0,0,1,.84,3.12h-4.58a1.84,1.84,0,0,0,.44,1.27,1.38,1.38,0,0,0,1.06.45,1.11,1.11,0,0,0,.72-.23A1.43,1.43,0,0,0,713.18,292.2Zm.11-1.84a1.72,1.72,0,0,0-.41-1.2,1.26,1.26,0,0,0-1-.43,1.28,1.28,0,0,0-1,.44,1.72,1.72,0,0,0-.39,1.19Zm5.05,4.05h-1.83V287.5h1.71v1a3.07,3.07,0,0,1,.78-.92,1.49,1.49,0,0,1,.79-.22,2.35,2.35,0,0,1,1.21.35l-.57,1.59a1.62,1.62,0,0,0-.86-.3,1,1,0,0,0-.65.22,1.39,1.39,0,0,0-.42.77,10,10,0,0,0-.16,2.3Z"/><path class="cls-4" d="M199.47,270.11h130v39.46h-130Z"/><path class="cls-11" d="M219,288.8l1.87-.17a2.35,2.35,0,0,0,.69,1.39,2.09,2.09,0,0,0,1.39.44,2.19,2.19,0,0,0,1.41-.39,1.22,1.22,0,0,0,.46-.93.8.8,0,0,0-.2-.57,1.54,1.54,0,0,0-.69-.43c-.23-.07-.74-.21-1.54-.4a5.25,5.25,0,0,1-2.18-1,2.48,2.48,0,0,1-.87-1.92,2.51,2.51,0,0,1,.41-1.36,2.64,2.64,0,0,1,1.18-1,5,5,0,0,1,1.89-.32,4,4,0,0,1,2.71.79,2.78,2.78,0,0,1,1,2.1l-1.92.07a1.57,1.57,0,0,0-.53-1,2,2,0,0,0-1.24-.33,2.21,2.21,0,0,0-1.31.34.71.71,0,0,0-.3.6.75.75,0,0,0,.28.58,5.06,5.06,0,0,0,1.77.64,8.65,8.65,0,0,1,2.08.68,2.7,2.7,0,0,1,1.06,1,3,3,0,0,1-.08,3.06,2.79,2.79,0,0,1-1.29,1.07,5.43,5.43,0,0,1-2.07.34,4.19,4.19,0,0,1-2.78-.83A3.67,3.67,0,0,1,219,288.8Zm12.53-3.8v1.46h-1.25v2.78a8.13,8.13,0,0,0,0,1,.51.51,0,0,0,.17.24.52.52,0,0,0,.31.09,2.62,2.62,0,0,0,.74-.17l.15,1.42a3.68,3.68,0,0,1-1.45.27,2.56,2.56,0,0,1-.89-.16,1.42,1.42,0,0,1-.58-.44,1.84,1.84,0,0,1-.26-.72,9,9,0,0,1,0-1.28v-3h-.85V285h.85v-1.37l1.83-1.08V285Zm5.26,4.71,1.83.31a3,3,0,0,1-1.11,1.53,3.34,3.34,0,0,1-1.89.52,3.09,3.09,0,0,1-2.67-1.18,4,4,0,0,1-.69-2.39,3.82,3.82,0,0,1,.89-2.68,3,3,0,0,1,2.28-1,3.06,3.06,0,0,1,2.44,1,4.47,4.47,0,0,1,.84,3.13h-4.57a1.83,1.83,0,0,0,.43,1.26,1.43,1.43,0,0,0,1.07.46,1.12,1.12,0,0,0,.72-.24A1.39,1.39,0,0,0,236.83,289.71Zm.11-1.85a1.71,1.71,0,0,0-.4-1.2,1.32,1.32,0,0,0-1.94,0,1.74,1.74,0,0,0-.39,1.19ZM240.2,285h1.7v1a2.42,2.42,0,0,1,.89-.85,2.68,2.68,0,0,1,3.3.61,3.81,3.81,0,0,1,.84,2.63,4,4,0,0,1-.84,2.7,2.63,2.63,0,0,1-2.05,1,2.51,2.51,0,0,1-1-.22,3.68,3.68,0,0,1-1-.8v3.48H240.2Zm1.81,3.33a2.79,2.79,0,0,0,.45,1.74,1.46,1.46,0,0,0,1.13.54,1.3,1.3,0,0,0,1.06-.5,2.67,2.67,0,0,0,.42-1.69,2.48,2.48,0,0,0-.43-1.6,1.36,1.36,0,0,0-1.08-.54,1.4,1.4,0,0,0-1.11.52A2.31,2.31,0,0,0,242,288.33Zm6.33-3.33H250v1a2.42,2.42,0,0,1,.89-.85,2.68,2.68,0,0,1,3.3.61,3.81,3.81,0,0,1,.84,2.63,4,4,0,0,1-.84,2.7,2.62,2.62,0,0,1-2,1,2.51,2.51,0,0,1-1-.22,3.68,3.68,0,0,1-1-.8v3.48h-1.83Zm1.81,3.33a2.72,2.72,0,0,0,.46,1.74,1.42,1.42,0,0,0,1.12.54,1.3,1.3,0,0,0,1.06-.5,2.67,2.67,0,0,0,.42-1.69,2.48,2.48,0,0,0-.43-1.6,1.34,1.34,0,0,0-1.08-.54,1.4,1.4,0,0,0-1.11.52A2.31,2.31,0,0,0,250.15,288.33Zm10.38,1.38,1.83.31a3,3,0,0,1-1.11,1.53,3.34,3.34,0,0,1-1.89.52,3.12,3.12,0,0,1-2.68-1.18,4,4,0,0,1-.68-2.39,3.77,3.77,0,0,1,.89-2.68,3,3,0,0,1,2.28-1,3.08,3.08,0,0,1,2.44,1,4.52,4.52,0,0,1,.84,3.13h-4.58a1.83,1.83,0,0,0,.44,1.26,1.39,1.39,0,0,0,1.06.46,1.12,1.12,0,0,0,.72-.24A1.4,1.4,0,0,0,260.53,289.71Zm.11-1.85a1.72,1.72,0,0,0-.41-1.2,1.25,1.25,0,0,0-1-.42,1.27,1.27,0,0,0-1,.43,1.74,1.74,0,0,0-.39,1.19Zm5.05,4.05h-1.83V285h1.71v1a2.83,2.83,0,0,1,.78-.92,1.4,1.4,0,0,1,.79-.22,2.34,2.34,0,0,1,1.21.34l-.57,1.59a1.66,1.66,0,0,0-.86-.29,1,1,0,0,0-.65.22,1.36,1.36,0,0,0-.42.76,10,10,0,0,0-.16,2.3Zm7.16-9.55h3.51a6.42,6.42,0,0,1,1.81.19,3.08,3.08,0,0,1,1.44.89,3.88,3.88,0,0,1,.92,1.55,6.88,6.88,0,0,1,.32,2.25,6,6,0,0,1-.3,2,4.13,4.13,0,0,1-1,1.69,3.33,3.33,0,0,1-1.35.77,5.94,5.94,0,0,1-1.7.2h-3.62Zm1.92,1.63v6.31h1.44a5.36,5.36,0,0,0,1.17-.09,1.77,1.77,0,0,0,.76-.39,1.94,1.94,0,0,0,.5-.93,5.78,5.78,0,0,0,.21-1.75,5.12,5.12,0,0,0-.21-1.68,2,2,0,0,0-.54-.93,1.65,1.65,0,0,0-.88-.45,8.93,8.93,0,0,0-1.59-.09Zm9.44,7.92h-1.83V285h1.7v1a2.83,2.83,0,0,1,.78-.92,1.44,1.44,0,0,1,.8-.22,2.28,2.28,0,0,1,1.2.34l-.56,1.59a1.69,1.69,0,0,0-.86-.29,1,1,0,0,0-.66.22,1.49,1.49,0,0,0-.42.76,10.92,10.92,0,0,0-.15,2.3Zm3.43-7.84v-1.71h1.83v1.71Zm0,7.84V285h1.83v6.91Zm5.61,0L290.47,285h1.91l1.31,3.52.37,1.19.19-.6.19-.59,1.33-3.52h1.87l-2.75,6.91Zm9.51-2.2,1.83.31a3,3,0,0,1-1.11,1.53,3.34,3.34,0,0,1-1.89.52,3.12,3.12,0,0,1-2.68-1.18,4,4,0,0,1-.68-2.39,3.77,3.77,0,0,1,.89-2.68,3,3,0,0,1,2.28-1,3.08,3.08,0,0,1,2.44,1,4.52,4.52,0,0,1,.84,3.13H300.1a1.83,1.83,0,0,0,.44,1.26,1.39,1.39,0,0,0,1.06.46,1.12,1.12,0,0,0,.72-.24A1.4,1.4,0,0,0,302.76,289.71Zm.11-1.85a1.72,1.72,0,0,0-.41-1.2,1.25,1.25,0,0,0-.95-.42,1.27,1.27,0,0,0-1,.43,1.74,1.74,0,0,0-.39,1.19Zm5.05,4.05h-1.83V285h1.71v1a2.83,2.83,0,0,1,.78-.92,1.4,1.4,0,0,1,.79-.22,2.34,2.34,0,0,1,1.21.34l-.57,1.59a1.69,1.69,0,0,0-.86-.29,1,1,0,0,0-.65.22,1.36,1.36,0,0,0-.42.76,10,10,0,0,0-.16,2.3Z"/><path class="cls-4" d="M710.29,55.48h99.84V74.69H710.29Z"/><path d="M725.11,65.11a4.15,4.15,0,0,1,1-3,3.47,3.47,0,0,1,2.64-1.08,3.54,3.54,0,0,1,1.89.52A3.18,3.18,0,0,1,732,63a4.39,4.39,0,0,1,.46,2.05,4.58,4.58,0,0,1-.47,2.08,3.2,3.2,0,0,1-1.33,1.37,3.73,3.73,0,0,1-1.86.47,3.63,3.63,0,0,1-1.92-.51A3.41,3.41,0,0,1,725.55,67,4.39,4.39,0,0,1,725.11,65.11Zm1,0a3.11,3.11,0,0,0,.73,2.18,2.42,2.42,0,0,0,1.86.79,2.45,2.45,0,0,0,1.88-.79,3.32,3.32,0,0,0,.73-2.29,3.85,3.85,0,0,0-.31-1.61,2.41,2.41,0,0,0-.92-1.07,2.48,2.48,0,0,0-1.36-.39,2.57,2.57,0,0,0-1.85.73A3.3,3.3,0,0,0,726.16,65.12Zm7.57,3.71V61.2h3.37a4.73,4.73,0,0,1,1.55.2,1.67,1.67,0,0,1,.84.74,2.05,2.05,0,0,1,.33,1.14,1.93,1.93,0,0,1-.53,1.37,2.69,2.69,0,0,1-1.63.71,2.16,2.16,0,0,1,.61.37,4.61,4.61,0,0,1,.85,1l1.33,2.08h-1.27l-1-1.6a10,10,0,0,0-.73-1,2,2,0,0,0-.52-.5,1,1,0,0,0-.45-.21,2.49,2.49,0,0,0-.56,0h-1.17v3.39Zm1-4.27h2.17a3.4,3.4,0,0,0,1.08-.14,1.08,1.08,0,0,0,.59-.45,1.21,1.21,0,0,0,.2-.69,1.14,1.14,0,0,0-.39-.89,1.83,1.83,0,0,0-1.23-.34h-2.42Zm6.85,4.27V61.2h1v7.63Zm2.8,0V61.2h5.52v.89h-4.5v2.35h4.22v.89H745.4v2.59h4.67v.91Zm7.08,0V61.2h1l4,6v-6h1v7.63h-1.05l-4-6v6Zm9.65,0V62.09h-2.52V61.2h6v.89h-2.53v6.74Zm2.93,0L767,61.2h1.09l3.13,7.63H770l-.89-2.32H766l-.83,2.32Zm2.21-3.13h2.58l-.8-2.12c-.24-.64-.42-1.16-.53-1.58a12.59,12.59,0,0,1-.42,1.45Zm6.89,3.13V62.09h-2.51V61.2h6v.89h-2.53v6.74Zm4.75,0V61.2h1v7.63Zm2.47-3.72a4.15,4.15,0,0,1,1-3,3.74,3.74,0,0,1,4.53-.56,3.26,3.26,0,0,1,1.3,1.4,4.51,4.51,0,0,1,.45,2.05,4.58,4.58,0,0,1-.47,2.08,3.2,3.2,0,0,1-1.33,1.37A3.73,3.73,0,0,1,784,69a3.63,3.63,0,0,1-1.92-.51A3.41,3.41,0,0,1,780.8,67,4.39,4.39,0,0,1,780.36,65.11Zm1,0a3.11,3.11,0,0,0,.73,2.18,2.42,2.42,0,0,0,1.86.79,2.45,2.45,0,0,0,1.88-.79,3.32,3.32,0,0,0,.73-2.29,3.85,3.85,0,0,0-.31-1.61,2.41,2.41,0,0,0-.92-1.07,2.48,2.48,0,0,0-1.36-.39,2.57,2.57,0,0,0-1.85.73A3.3,3.3,0,0,0,781.41,65.12ZM789,68.83V61.2h1l4,6v-6h1v7.63h-1l-4-6v6Z"/><path class="cls-4" d="M300.78,54.8h99.84V74H300.78Z"/><path d="M325.2,68.15V60.52h5.51v.9h-4.5v2.34h4.22v.89h-4.22v2.59h4.67v.91ZM331.77,66l.91-.13a1.92,1.92,0,0,0,.33,1.21,1.07,1.07,0,0,0,.81.32,1.11,1.11,0,0,0,.64-.17.9.9,0,0,0,.38-.48,3.2,3.2,0,0,0,.1-1V60.52h1v5.19a3.93,3.93,0,0,1-.23,1.5,1.69,1.69,0,0,1-.74.8,2.41,2.41,0,0,1-1.17.26,2.05,2.05,0,0,1-1.55-.57A2.39,2.39,0,0,1,331.77,66Zm5.86,2.17V60.52h5.52v.9h-4.5v2.34h4.22v.89h-4.22v2.59h4.67v.91Zm12.53-2.67,1,.25a3.45,3.45,0,0,1-1.16,1.9,3.12,3.12,0,0,1-2,.64,3.53,3.53,0,0,1-2-.5,3.12,3.12,0,0,1-1.18-1.45,5.17,5.17,0,0,1-.4-2,4.51,4.51,0,0,1,.45-2.07,3,3,0,0,1,1.3-1.35,3.73,3.73,0,0,1,1.84-.47A3.09,3.09,0,0,1,350,61,2.94,2.94,0,0,1,351,62.62l-1,.23a2.29,2.29,0,0,0-.78-1.22,2,2,0,0,0-1.26-.37,2.46,2.46,0,0,0-1.47.42,2.13,2.13,0,0,0-.83,1.14,4.45,4.45,0,0,0-.24,1.45,4.71,4.71,0,0,0,.29,1.71,2.05,2.05,0,0,0,.87,1.08,2.47,2.47,0,0,0,1.3.36,2.19,2.19,0,0,0,1.43-.49A2.46,2.46,0,0,0,350.16,65.48Zm4.2,2.67V61.42h-2.52v-.9h6.05v.9h-2.53v6.73Zm4.74,0V60.52h1v7.63Zm2.48-3.72a4.19,4.19,0,0,1,1-3,3.5,3.5,0,0,1,2.64-1.08,3.58,3.58,0,0,1,1.89.52,3.12,3.12,0,0,1,1.3,1.41,4.44,4.44,0,0,1,.45,2,4.54,4.54,0,0,1-.46,2.08,3.34,3.34,0,0,1-1.33,1.38,3.88,3.88,0,0,1-1.86.46,3.63,3.63,0,0,1-1.92-.51A3.32,3.32,0,0,1,362,66.35,4.35,4.35,0,0,1,361.58,64.43Zm1,0a3.09,3.09,0,0,0,.74,2.17,2.57,2.57,0,0,0,3.73,0,3.27,3.27,0,0,0,.74-2.28,3.82,3.82,0,0,0-.32-1.61,2.27,2.27,0,0,0-.92-1.08,2.46,2.46,0,0,0-1.36-.39,2.55,2.55,0,0,0-1.84.73A3.31,3.31,0,0,0,362.62,64.45Zm7.54,3.7V60.52h1l4,6v-6h1v7.63h-1.05l-4-6v6Z"/><path class="cls-4" d="M190.58,259.72H341.29v60.76H190.58Z"/><path class="cls-12" d="M190.58,259.72H341.29v60.76H190.58Z"/><path class="cls-4" d="M631.43,259.52l0-12.75"/><path class="cls-6" d="M631.43,259.52l0-12.75"/><path class="cls-6" d="M575.06,246.75v36.63"/><path class="cls-4" d="M562.24,283.12l25.67,0"/><path class="cls-6" d="M562.24,283.12l25.67,0"/><path class="cls-6" d="M566.82,286.29h16.5"/><path class="cls-4" d="M569.73,289.22l10.68.06"/><path class="cls-6" d="M569.73,289.22l10.68.06"/><path class="cls-4" d="M575.06,247.35l35.31,0"/><path class="cls-6" d="M575.06,247.35l35.31,0"/><path class="cls-4" d="M613.5,247.31l18.46,0"/><path class="cls-6" d="M613.5,247.31l18.46,0"/><path class="cls-4" d="M602.43,259.72H753.14v60.76H602.43Z"/><path class="cls-12" d="M602.43,259.72H753.14v60.76H602.43Z"/><path class="cls-4" d="M407.61,386.25h213v25h-213Z"/><path d="M417.18,399.3v-1h5.56v.83a12.46,12.46,0,0,0-1.63,2.33,14.12,14.12,0,0,0-1.23,3,10.55,10.55,0,0,0-.41,2.36h-1.09a10.64,10.64,0,0,1,.39-2.46,13.9,13.9,0,0,1,1.09-2.76,11.49,11.49,0,0,1,1.54-2.25Zm32.08,1-1.05.08a2,2,0,0,0-.39-.91,1.41,1.41,0,0,0-1.06-.45,1.47,1.47,0,0,0-.89.28,2.65,2.65,0,0,0-.78,1.08,5.54,5.54,0,0,0-.3,2,2.43,2.43,0,0,1,.92-.86,2.59,2.59,0,0,1,1.18-.28,2.37,2.37,0,0,1,1.78.78,2.77,2.77,0,0,1,.75,2,3.3,3.3,0,0,1-.36,1.52,2.5,2.5,0,0,1-2.33,1.42,2.73,2.73,0,0,1-2.16-1,4.92,4.92,0,0,1-.82-3.19,5.66,5.66,0,0,1,.92-3.62,2.62,2.62,0,0,1,2.15-1,2.37,2.37,0,0,1,1.66.58A2.33,2.33,0,0,1,449.26,400.28ZM445,404a2.66,2.66,0,0,0,.22,1,1.76,1.76,0,0,0,.64.75,1.63,1.63,0,0,0,.89.27,1.5,1.5,0,0,0,1.14-.53,2.12,2.12,0,0,0,.49-1.47,2,2,0,0,0-.49-1.41,1.52,1.52,0,0,0-1.18-.51,1.64,1.64,0,0,0-1.22.51A1.91,1.91,0,0,0,445,404Zm28.84.53,1.11-.1a2,2,0,0,0,.57,1.22,1.57,1.57,0,0,0,1.09.41,1.66,1.66,0,0,0,1.28-.58,2.18,2.18,0,0,0,.53-1.52,2,2,0,0,0-.51-1.42,1.77,1.77,0,0,0-1.33-.53,1.8,1.8,0,0,0-.92.24,1.74,1.74,0,0,0-.64.59l-1-.13.83-4.4h4.28v1h-3.44l-.45,2.31a2.77,2.77,0,0,1,1.61-.55,2.54,2.54,0,0,1,1.89.78,2.76,2.76,0,0,1,.78,2,3.19,3.19,0,0,1-.67,2,2.75,2.75,0,0,1-2.25,1,2.8,2.8,0,0,1-1.92-.66A2.61,2.61,0,0,1,473.8,404.52Zm33.39,2.25V404.7h-3.72v-1l3.92-5.57h.86v5.57h1.16v1h-1.16v2.07Zm0-3v-3.86l-2.69,3.86Zm26.64.76,1.06-.14a2.33,2.33,0,0,0,.61,1.3,1.53,1.53,0,0,0,1.06.39,1.72,1.72,0,0,0,1.27-.52,1.74,1.74,0,0,0,.51-1.28,1.64,1.64,0,0,0-1.68-1.67,3,3,0,0,0-.75.12l.12-.93h.17a2.19,2.19,0,0,0,1.21-.34,1.23,1.23,0,0,0,.54-1.1,1.27,1.27,0,0,0-.39-.95,1.37,1.37,0,0,0-1-.39,1.49,1.49,0,0,0-1,.39,1.93,1.93,0,0,0-.51,1.16l-1.06-.19a2.58,2.58,0,0,1,.87-1.62,2.51,2.51,0,0,1,1.7-.6,2.83,2.83,0,0,1,1.3.31,2.14,2.14,0,0,1,.91.82,2.07,2.07,0,0,1,.31,1.11,1.84,1.84,0,0,1-.3,1,2,2,0,0,1-.87.72,2,2,0,0,1,1.17.73,2.24,2.24,0,0,1,.42,1.4,2.48,2.48,0,0,1-.83,1.9,2.85,2.85,0,0,1-2.06.78,2.68,2.68,0,0,1-1.87-.67A2.65,2.65,0,0,1,533.83,404.5Zm35.56,1.25v1H563.7a2.34,2.34,0,0,1,.12-.74,4.34,4.34,0,0,1,.69-1.14,11.52,11.52,0,0,1,1.39-1.3,11.52,11.52,0,0,0,1.89-1.82,2.12,2.12,0,0,0,.5-1.27,1.39,1.39,0,0,0-.45-1.05,1.61,1.61,0,0,0-1.17-.43,1.65,1.65,0,0,0-1.22.45,1.76,1.76,0,0,0-.47,1.27l-1.08-.11a2.64,2.64,0,0,1,.83-1.85,2.93,2.93,0,0,1,2-.64,2.7,2.7,0,0,1,1.95.69,2.27,2.27,0,0,1,.72,1.7,2.47,2.47,0,0,1-.22,1,3.79,3.79,0,0,1-.7,1,15.27,15.27,0,0,1-1.61,1.5c-.64.54-1.05.9-1.24,1.1a3.5,3.5,0,0,0-.43.56Z"/></g></svg>